<?xml version="1.0" standalone="no"?>
<!DOCTYPE svg PUBLIC "-//W3C//DTD SVG 20010904//EN"
 "http://www.w3.org/TR/2001/REC-SVG-20010904/DTD/svg10.dtd">
<svg version="1.0" xmlns="http://www.w3.org/2000/svg"
 width="512.000000pt" height="512.000000pt" viewBox="0 0 512.000000 512.000000"
 preserveAspectRatio="xMidYMid meet">
<metadata>
Created by potrace 1.11, written by Peter Selinger 2001-2013
</metadata>
<g transform="translate(0.000000,512.000000) scale(0.100000,-0.100000)"
fill="#000000" stroke="none">
<path d="M817 3656 c-8 -8 -31 -79 -50 -158 -20 -79 -51 -195 -68 -258 -16
-63 -46 -173 -64 -245 -19 -71 -48 -184 -65 -250 -18 -66 -34 -127 -36 -135
-2 -8 -13 -51 -25 -95 -11 -44 -23 -87 -25 -95 -2 -8 -21 -82 -43 -165 -21
-82 -56 -213 -76 -290 -20 -77 -54 -207 -77 -290 -44 -166 -49 -183 -51 -205
-2 -13 42 -15 343 -15 l345 0 17 85 c9 47 20 105 23 130 3 25 8 52 10 60 2 8
6 26 8 40 43 250 83 455 93 464 9 10 181 15 226 7 9 -1 20 -47 44 -176 10 -55
19 -102 19 -105 1 -3 5 -27 9 -53 5 -26 14 -54 21 -61 10 -9 149 -12 631 -12
341 1 625 5 632 9 9 6 12 150 12 663 0 643 0 655 20 662 11 4 68 7 127 7 l108
-1 12 -59 c6 -33 14 -76 17 -95 3 -19 8 -48 11 -65 3 -16 15 -79 25 -140 11
-60 27 -147 35 -192 9 -45 18 -96 20 -112 2 -17 8 -54 14 -83 6 -29 13 -69 16
-88 11 -66 45 -255 50 -280 3 -14 7 -38 9 -55 2 -16 7 -41 10 -55 3 -14 8 -36
10 -50 7 -41 17 -59 34 -64 10 -2 131 -3 270 -2 203 1 254 4 261 15 7 11 28
101 48 211 2 14 13 69 24 123 10 53 21 110 24 125 26 144 37 182 50 182 19 0
23 -8 41 -91 8 -41 17 -83 20 -94 2 -11 6 -31 9 -45 2 -14 20 -100 40 -190 19
-91 35 -172 35 -181 0 -8 6 -24 14 -35 14 -18 29 -19 271 -20 166 0 261 4 270
10 8 6 16 25 19 41 3 17 21 125 41 240 33 199 38 227 50 293 3 15 8 43 11 62
2 19 9 58 14 85 6 28 12 68 16 90 3 22 9 58 14 80 5 22 12 63 16 90 3 28 8 59
11 70 3 16 25 139 48 275 3 14 7 36 9 50 3 14 8 41 11 60 2 19 18 109 34 200
19 112 25 169 19 178 -8 9 -79 12 -292 12 -154 0 -287 -4 -293 -8 -15 -9 -20
-46 -39 -237 -2 -27 -7 -66 -10 -85 -3 -19 -7 -55 -9 -80 -5 -44 -9 -85 -20
-180 -10 -78 -47 -88 -59 -15 -5 32 -24 160 -31 210 -2 17 -11 82 -20 145 -29
210 -34 233 -48 242 -16 10 -368 10 -384 0 -10 -6 -31 -120 -47 -262 -3 -25
-8 -55 -10 -67 -3 -12 -7 -49 -11 -82 -3 -33 -8 -68 -10 -79 -2 -10 -6 -43
-10 -73 -7 -57 -20 -89 -35 -89 -17 0 -24 24 -35 125 -6 55 -23 193 -30 240
-4 32 -22 177 -29 232 -7 68 106 63 -1327 63 -1106 0 -1300 -2 -1312 -14z
m1160 -490 c10 -9 11 -1046 2 -1046 -4 0 -9 10 -11 23 -5 21 -52 198 -104 387
-13 47 -39 145 -59 218 -19 73 -47 174 -61 225 -14 51 -28 102 -30 114 -2 12
-9 35 -15 49 -6 18 -6 29 0 33 14 9 269 6 278 -3z m-773 -374 c3 -5 8 -24 11
-43 3 -19 15 -80 26 -136 11 -57 18 -107 15 -111 -9 -16 -123 -14 -129 1 -3 8
4 56 14 108 11 52 22 108 25 124 10 61 23 81 38 57z"/>
<path d="M1187 1683 c-8 -15 -31 -68 -52 -118 -20 -49 -39 -96 -42 -102 -3 -7
-1 -13 5 -13 5 0 17 18 25 39 15 37 19 39 64 43 78 5 89 1 106 -43 8 -21 20
-39 26 -39 10 0 1 27 -40 116 -10 23 -27 63 -37 90 -23 58 -36 64 -55 27z m70
-126 c-3 -10 -95 -14 -99 -5 -2 3 8 35 22 72 l25 66 28 -62 c15 -34 26 -66 24
-71z"/>
<path d="M1469 1698 c-1 -18 -1 -198 0 -225 1 -22 5 -23 71 -23 40 0 70 4 70
10 0 6 -27 10 -62 10 l-63 0 2 120 c2 74 -1 120 -7 120 -6 0 -10 -6 -11 -12z"/>
<path d="M1760 1693 c-1 -30 -1 -207 -1 -225 1 -16 12 -18 77 -18 47 0 73 4
69 10 -3 6 -33 10 -66 10 l-59 0 0 120 c0 73 -4 120 -10 120 -5 0 -10 -8 -10
-17z"/>
<path d="M2190 1701 c0 -5 18 -8 40 -6 22 2 43 -1 46 -7 4 -6 7 -60 8 -121 1
-64 5 -112 11 -114 6 -2 10 42 10 119 l0 123 42 0 c23 0 45 3 49 8 4 4 -41 7
-99 7 -60 0 -107 -4 -107 -9z"/>
<path d="M2541 1580 c0 -75 4 -130 10 -130 10 0 10 1 12 75 l2 50 83 0 82 1 0
-63 c0 -35 4 -63 10 -63 6 0 10 50 10 130 0 80 -4 130 -10 130 -11 0 -12 -7
-10 -72 l1 -48 -84 0 -85 0 0 38 c0 67 -2 82 -11 82 -6 0 -10 -57 -10 -130z"/>
<path d="M2925 1583 l0 -128 85 -3 c56 -2 82 0 75 7 -6 5 -39 11 -74 13 l-65
3 -1 48 c-2 51 -5 49 67 51 60 2 56 16 -4 16 -36 0 -57 5 -60 13 -4 10 -3 66
1 88 1 3 27 5 59 3 31 -1 64 2 72 7 9 5 -18 9 -70 9 l-86 0 1 -127z"/>
<path d="M3594 1583 c24 -70 47 -128 52 -130 5 -2 26 46 48 107 21 60 41 110
45 110 3 -1 22 -49 41 -107 19 -59 40 -108 46 -110 5 -2 19 23 29 54 55 175
63 204 52 200 -6 -2 -27 -52 -45 -112 -22 -68 -37 -103 -42 -94 -4 8 -22 58
-41 112 -18 53 -38 96 -43 94 -10 -3 -61 -134 -73 -185 -3 -12 -8 -24 -12 -26
-4 -3 -22 45 -41 105 -19 60 -39 109 -46 109 -8 0 2 -44 30 -127z"/>
<path d="M4111 1688 c-5 -13 -30 -71 -55 -130 -25 -60 -41 -108 -35 -108 6 0
18 18 26 39 14 37 18 39 62 43 76 5 88 1 105 -43 9 -21 20 -39 26 -39 13 0 15
-5 -30 101 -76 176 -81 183 -99 137z m73 -137 c-2 -2 -26 -4 -54 -4 -28 0 -52
2 -54 4 -2 2 10 33 26 69 l29 65 28 -65 c16 -36 27 -67 25 -69z"/>
<path d="M4366 1653 c20 -32 43 -67 50 -78 8 -11 14 -43 14 -72 0 -29 5 -53
10 -53 6 0 10 26 10 58 0 51 5 64 45 125 48 74 50 77 36 77 -5 0 -28 -29 -50
-65 -23 -36 -43 -65 -45 -65 -2 0 -21 29 -42 65 -22 35 -45 65 -52 65 -7 0 2
-23 24 -57z"/>
</g>
</svg>
