<?xml version="1.0" standalone="no"?>
<!DOCTYPE svg PUBLIC "-//W3C//DTD SVG 20010904//EN"
 "http://www.w3.org/TR/2001/REC-SVG-20010904/DTD/svg10.dtd">
<svg version="1.0" xmlns="http://www.w3.org/2000/svg"
 width="1628.000000pt" height="1628.000000pt" viewBox="0 0 1628.000000 1628.000000"
 preserveAspectRatio="xMidYMid meet">
<metadata>
Created by potrace 1.11, written by Peter Selinger 2001-2013
</metadata>
<g transform="translate(0.000000,1628.000000) scale(0.100000,-0.100000)"
fill="#000000" stroke="none">
<path d="M2567 11695 c-67 -35 -58 -11 -177 -470 -17 -66 -58 -223 -91 -349
-34 -126 -62 -236 -64 -245 -4 -16 -10 -39 -55 -206 -12 -44 -23 -87 -25 -95
-2 -8 -15 -60 -30 -115 -14 -55 -39 -149 -55 -210 -15 -60 -65 -249 -110 -420
-45 -170 -97 -371 -116 -445 -20 -74 -55 -209 -79 -300 -55 -207 -116 -440
-120 -460 -2 -8 -15 -59 -30 -113 -15 -54 -28 -107 -31 -118 -2 -10 -6 -27 -9
-36 -2 -10 -11 -43 -19 -73 -8 -30 -32 -122 -54 -205 -94 -357 -244 -931 -247
-945 -2 -8 -33 -125 -69 -260 -35 -135 -82 -315 -105 -400 -22 -85 -51 -198
-65 -250 -13 -52 -52 -196 -85 -320 -74 -280 -122 -460 -127 -480 -1 -8 -17
-67 -34 -130 -77 -289 -110 -419 -110 -439 0 -11 9 -25 19 -31 13 -7 372 -10
1093 -10 1061 0 1074 0 1096 20 22 20 36 63 46 135 3 22 10 65 15 95 6 30 13
71 16 90 3 19 8 42 10 50 2 8 6 33 10 55 3 22 12 76 20 120 8 44 17 97 21 119
3 21 8 48 10 60 5 26 11 62 65 366 17 96 34 198 39 225 13 77 18 106 55 305
19 102 37 201 40 220 3 19 17 94 30 165 13 72 27 143 29 159 3 16 10 52 15 80
6 28 13 67 15 86 14 91 27 143 43 167 8 12 26 26 41 31 28 10 613 14 669 5 49
-8 79 -41 87 -99 4 -27 9 -56 11 -64 2 -8 6 -31 9 -50 6 -32 13 -72 37 -190 4
-25 17 -94 29 -155 11 -60 36 -195 56 -300 20 -104 44 -234 54 -287 9 -54 25
-109 33 -122 34 -51 24 -50 1027 -49 1128 2 841 2 2010 0 1069 -1 1014 -4
1063 51 18 20 19 94 19 2089 -1 1378 3 2079 9 2101 21 65 30 67 447 68 204 0
372 0 372 -1 0 -1 5 -27 10 -56 6 -30 13 -70 16 -89 2 -19 9 -55 14 -80 5 -25
12 -61 15 -80 3 -19 7 -46 10 -60 3 -14 7 -41 10 -60 7 -45 13 -78 20 -110 4
-20 42 -232 70 -395 17 -97 26 -143 30 -165 3 -14 8 -41 11 -60 3 -19 14 -82
24 -140 11 -58 21 -122 25 -144 3 -21 7 -41 10 -45 2 -4 6 -25 9 -47 6 -50 67
-397 87 -494 5 -25 11 -61 14 -80 3 -19 12 -71 20 -115 8 -44 17 -98 20 -120
4 -22 13 -71 20 -110 8 -38 16 -86 19 -105 3 -19 8 -46 11 -60 2 -14 16 -90
30 -170 14 -80 30 -167 35 -195 9 -51 66 -376 75 -430 3 -16 8 -41 11 -55 3
-14 8 -38 10 -55 2 -16 6 -41 9 -55 7 -36 71 -398 81 -455 2 -16 7 -41 9 -55
7 -35 12 -58 20 -107 7 -45 42 -88 85 -106 17 -7 298 -11 839 -11 876 -1 851
-3 886 50 13 20 58 216 78 339 3 17 8 41 11 55 3 14 8 36 10 50 6 35 93 479
110 565 14 67 40 202 50 255 2 14 7 36 10 50 3 14 8 37 10 51 2 14 13 73 25
130 11 57 23 118 26 134 3 17 8 40 10 53 6 29 10 46 35 172 27 138 37 166 67
195 31 28 60 20 86 -25 15 -25 22 -49 43 -160 6 -32 60 -283 80 -375 9 -38 22
-101 29 -140 8 -38 35 -167 60 -285 26 -118 48 -226 51 -240 3 -14 20 -97 39
-185 19 -88 37 -175 40 -192 3 -18 12 -61 20 -95 8 -35 17 -78 20 -95 3 -18
12 -63 21 -100 9 -38 18 -81 21 -98 6 -39 27 -70 60 -92 25 -17 81 -18 844
-18 815 0 818 0 846 21 37 27 60 69 66 119 3 22 19 121 37 220 17 99 33 194
36 210 2 17 6 41 9 55 3 14 7 39 10 55 3 17 7 40 9 51 2 12 7 39 10 60 4 22
11 65 17 96 17 95 17 98 39 225 11 67 23 132 25 144 3 13 16 91 30 174 26 151
28 165 46 265 6 30 11 64 13 75 2 11 6 36 10 55 3 19 8 51 10 71 3 20 8 42 10
50 3 8 8 32 11 54 3 22 15 92 26 155 11 63 22 128 24 143 2 16 6 40 9 55 3 15
8 43 11 62 4 19 13 73 21 120 9 47 17 96 19 110 2 14 10 64 19 110 8 47 18 99
20 115 3 17 8 41 10 55 3 14 8 43 11 65 3 22 7 47 10 55 2 8 6 33 10 55 3 22
15 92 26 155 12 63 22 124 24 135 3 31 19 123 30 175 2 14 7 41 10 60 3 19 14
85 25 145 10 61 21 126 24 145 3 19 8 45 10 56 2 12 7 39 10 60 4 22 13 75 21
119 8 44 17 96 20 115 3 19 7 46 10 60 3 14 7 39 10 55 3 17 7 41 10 55 3 14
8 41 11 60 3 19 14 85 24 145 10 61 21 126 25 145 3 19 10 58 15 85 5 28 11
66 14 85 3 19 14 85 25 145 11 61 22 124 25 140 22 134 48 284 52 305 2 14 7
39 9 55 3 17 7 41 10 55 3 14 11 62 17 108 l12 83 -27 27 -27 27 -910 3
c-1004 3 -952 6 -983 -60 -8 -18 -18 -71 -22 -118 -4 -47 -9 -94 -11 -105 -2
-11 -6 -45 -9 -75 -3 -30 -7 -68 -10 -85 -2 -16 -7 -57 -10 -90 -3 -33 -8 -73
-10 -90 -2 -16 -7 -57 -10 -90 -3 -33 -7 -73 -9 -90 -13 -100 -17 -135 -20
-175 -3 -25 -7 -67 -10 -95 -12 -99 -16 -131 -21 -175 -3 -25 -7 -61 -10 -80
-3 -19 -7 -63 -11 -98 -3 -35 -7 -71 -9 -80 -1 -9 -6 -55 -10 -102 -4 -47 -9
-87 -10 -90 -2 -3 -6 -35 -10 -70 -20 -204 -26 -242 -46 -282 -11 -21 -30 -45
-44 -54 -23 -15 -27 -15 -49 -1 -25 17 -52 83 -60 147 -2 19 -12 85 -21 145
-8 61 -18 121 -20 135 -4 32 -17 120 -20 140 -2 8 -6 40 -9 70 -4 30 -9 57
-11 60 -1 3 -6 36 -10 75 -4 38 -8 72 -10 75 -1 3 -6 28 -9 55 -11 82 -17 119
-21 145 -3 14 -7 48 -11 75 -3 28 -8 59 -10 70 -2 10 -6 35 -8 55 -3 19 -19
130 -36 245 -16 116 -33 228 -36 250 -2 22 -9 65 -14 95 -5 30 -12 75 -15 100
-12 89 -16 105 -33 124 -41 45 -49 46 -648 46 -633 0 -617 2 -648 -68 -8 -20
-23 -91 -31 -157 -18 -137 -20 -151 -31 -220 -4 -27 -8 -57 -9 -65 -1 -8 -6
-46 -10 -85 -4 -38 -9 -73 -11 -76 -2 -4 -6 -31 -9 -60 -3 -30 -7 -65 -10 -79
-2 -14 -7 -50 -10 -80 -3 -30 -8 -62 -10 -70 -2 -8 -6 -40 -9 -70 -3 -30 -8
-64 -10 -76 -2 -12 -7 -45 -11 -75 -3 -30 -8 -65 -10 -79 -2 -14 -7 -45 -10
-70 -4 -25 -8 -56 -10 -70 -2 -14 -7 -49 -10 -79 -4 -30 -8 -61 -10 -70 -1 -9
-6 -38 -9 -66 -4 -27 -8 -61 -11 -75 -2 -14 -7 -47 -10 -75 -3 -27 -7 -61 -10
-75 -2 -14 -7 -47 -10 -75 -11 -90 -16 -110 -40 -151 -30 -51 -61 -62 -92 -32
-31 29 -45 73 -58 179 -11 94 -17 144 -20 159 -2 8 -6 47 -10 85 -4 39 -9 79
-11 90 -2 11 -6 45 -9 75 -3 30 -7 62 -10 70 -2 8 -6 46 -10 83 -3 37 -8 76
-10 85 -1 9 -6 44 -9 77 -4 33 -9 71 -11 85 -2 14 -6 46 -9 73 -3 26 -9 68
-12 95 -3 26 -7 58 -9 72 -2 14 -7 52 -11 85 -3 33 -8 69 -10 80 -2 11 -7 51
-10 90 -3 38 -7 72 -9 75 -2 3 -6 37 -10 75 -4 39 -9 78 -11 89 -2 10 -6 44
-10 75 -3 31 -8 63 -9 71 -2 8 -6 44 -10 80 -8 80 -22 102 -78 129 l-44 21
-2982 -2 c-2757 -3 -2983 -4 -2992 -19 -8 -16 -12 -15 -46 2 -36 18 -77 19
-1158 19 -958 0 -1124 -2 -1148 -15z m3665 -1593 c15 -6 34 -23 44 -36 15 -24
16 -154 16 -1673 -1 -907 -1 -1679 -2 -1718 l-1 -70 -19 70 c-55 207 -381
1415 -390 1445 -13 43 -80 290 -85 310 -1 8 -19 76 -39 150 -21 74 -39 142
-41 150 -2 8 -13 51 -25 95 -13 44 -35 127 -51 185 -29 109 -120 446 -145 538
-8 28 -20 76 -28 105 -24 84 -113 420 -118 443 l-5 21 431 -1 c298 -2 439 -6
458 -14z m-2467 -1205 c16 -25 39 -98 50 -162 12 -71 16 -89 26 -133 5 -23 12
-59 15 -80 3 -20 7 -44 9 -52 2 -8 7 -30 10 -47 3 -18 14 -78 25 -133 11 -55
22 -115 25 -133 3 -17 13 -70 21 -116 18 -96 14 -106 -50 -116 -56 -9 -317
-10 -344 -1 -41 14 -42 41 -6 221 32 162 42 216 49 260 2 11 12 63 23 115 11
52 23 111 26 130 36 233 76 315 121 247z"/>
<path d="M3746 5378 c-7 -18 -46 -109 -85 -203 -40 -93 -78 -183 -86 -200 -43
-97 -157 -372 -158 -385 -3 -20 39 -21 57 -1 8 9 33 63 56 121 23 58 45 109
50 113 7 8 418 13 424 6 1 -2 24 -56 50 -119 26 -63 52 -119 56 -124 5 -5 20
-10 34 -11 32 -4 33 10 6 68 -18 40 -122 283 -261 614 -64 152 -64 153 -96
153 -27 0 -35 -5 -47 -32z m64 -83 c5 -11 31 -74 58 -140 28 -66 64 -153 81
-194 17 -41 30 -76 28 -78 -2 -2 -88 -2 -189 -1 l-186 3 18 40 c10 22 53 125
96 229 43 103 80 182 82 175 2 -8 7 -23 12 -34z"/>
<path d="M4626 4998 c1 -227 2 -415 3 -418 0 -3 106 -5 234 -5 l232 0 3 28 3
27 -205 0 -206 0 0 390 0 390 -33 0 -32 0 1 -412z"/>
<path d="M5563 4995 c0 -289 4 -415 11 -418 6 -2 112 -3 235 -3 l225 1 1 28 2
27 -204 0 -203 0 -1 23 c0 12 -1 187 -1 390 l0 367 -33 0 -32 0 0 -415z"/>
<path d="M6943 5389 c2 -11 8 -24 14 -27 6 -4 75 -6 152 -6 l141 1 0 -392 0
-392 28 3 c15 1 29 2 32 3 3 1 5 176 5 390 l0 388 135 1 c183 0 170 -2 170 27
l0 25 -340 0 c-339 0 -340 0 -337 -21z"/>
<path d="M8080 4992 l0 -419 23 1 c12 1 27 4 32 8 7 4 10 79 10 200 l0 193
265 0 265 0 5 -200 c5 -199 5 -200 28 -201 12 -1 26 4 30 10 3 6 7 194 7 419
l0 407 -32 0 -33 0 0 -193 0 -194 -267 1 -268 1 0 193 1 192 -33 0 -33 0 0
-418z"/>
<path d="M9315 4993 l0 -418 258 0 257 0 0 27 0 27 -197 0 c-109 -1 -210 0
-225 0 l-28 1 0 170 0 170 68 1 c37 0 120 0 185 0 64 0 117 3 118 7 0 4 2 15
4 24 2 9 -2 18 -8 20 -7 2 -92 4 -189 3 l-178 0 0 166 0 166 224 -1 225 -1 4
22 c2 13 2 25 -1 28 -3 3 -121 5 -261 5 l-256 0 0 -417z"/>
<path d="M11333 5403 c2 -4 59 -177 127 -383 67 -206 127 -391 133 -410 10
-29 17 -35 39 -35 15 1 29 3 31 5 2 3 57 158 122 345 65 187 124 351 130 364
11 21 14 16 44 -70 66 -189 163 -466 194 -554 31 -85 34 -90 62 -90 29 0 29 1
92 195 34 107 94 292 133 410 38 119 70 219 70 224 0 4 -15 6 -32 4 -33 -3
-33 -4 -75 -133 -104 -327 -172 -543 -180 -573 l-8 -33 -19 58 c-11 32 -25 72
-32 88 -6 17 -57 156 -111 310 -98 276 -100 280 -127 280 -23 0 -31 -7 -42
-35 -20 -54 -151 -420 -202 -569 -44 -126 -47 -131 -55 -100 -8 34 -87 285
-175 559 l-47 145 -39 3 c-21 2 -36 0 -33 -5z"/>
<path d="M13157 5403 c-3 -5 -17 -37 -32 -73 -50 -121 -187 -444 -251 -594
-65 -152 -67 -164 -21 -162 17 1 28 18 54 81 19 44 39 91 44 105 6 14 15 35
20 48 10 25 -12 23 266 24 154 0 168 -1 174 -18 21 -55 92 -220 99 -227 4 -4
19 -10 33 -13 29 -5 35 11 18 44 -5 9 -16 33 -24 52 -8 19 -52 123 -97 230
-45 107 -90 213 -99 235 -10 22 -40 93 -67 157 -48 116 -50 118 -81 118 -17 0
-34 -3 -36 -7z m123 -278 c26 -53 100 -239 96 -242 -1 -2 -86 -2 -188 -1
l-185 3 22 50 c12 28 55 129 95 227 l73 176 39 -96 c21 -54 43 -106 48 -117z"/>
<path d="M13836 5398 c4 -7 49 -76 99 -153 50 -77 119 -183 152 -235 l61 -95
1 -155 c0 -85 0 -163 0 -173 1 -13 7 -16 27 -13 15 3 29 8 32 10 3 3 5 77 4
163 -1 155 7 200 38 235 7 7 72 105 145 218 l132 205 -31 3 c-34 4 -52 -13
-111 -110 -123 -199 -210 -328 -214 -316 -4 13 -94 156 -208 331 -61 92 -66
97 -99 97 -26 0 -33 -3 -28 -12z"/>
</g>
</svg>
