<?xml version="1.0" encoding="UTF-8" standalone="no"?>
<svg xmlns:dc="http://purl.org/dc/elements/1.1/"
    xmlns:cc="http://creativecommons.org/ns#"
    xmlns:rdf="http://www.w3.org/1999/02/22-rdf-syntax-ns#"
    xmlns:svg="http://www.w3.org/2000/svg"
    xmlns="http://www.w3.org/2000/svg"
    xmlns:sodipodi="http://sodipodi.sourceforge.net/DTD/sodipodi-0.dtd"
    xmlns:inkscape="http://www.inkscape.org/namespaces/inkscape" version="1.1" id="svg2" xml:space="preserve" width="478.85333" height="228.54668" viewBox="0 0 478.85333 228.54668" sodipodi:docname="ATW farg-2.eps">
    <metadata id="metadata8">
        <rdf:RDF>
            <cc:Work rdf:about="">
                <dc:format>image/svg+xml</dc:format>
                <dc:type rdf:resource="http://purl.org/dc/dcmitype/StillImage" />
            </cc:Work>
        </rdf:RDF>
    </metadata>
    <defs id="defs6" />
    <sodipodi:namedview pagecolor="#ffffff" bordercolor="#666666" borderopacity="1" objecttolerance="10" gridtolerance="10" guidetolerance="10" inkscape:pageopacity="0" inkscape:pageshadow="2" inkscape:window-width="640" inkscape:window-height="480" id="namedview4" />
    <g id="g10" inkscape:groupmode="layer" inkscape:label="ink_ext_XXXXXX" transform="matrix(1.3333333,0,0,-1.3333333,0,228.54667)">
        <g id="g12" transform="scale(0.1)">
            <path d="m 1391.64,338.25 -365.09,1351.33 c -2.66,13.23 -15.98,24.57 -34.636,24.57 H 472.273 c -15.988,0 -29.316,-13.23 -31.98,-22.68 L 83.2031,328.801 c -0.2578,-0.903 -0.2578,-1.711 -0.4375,-2.582 -0.5039,-1.239 -0.7617,-2.117 -0.7617,-2.117 L 0.722656,16.7109 C -3.69531,0 13.5859,0 13.5859,0 H 516.785 c 17.278,0 20.258,17.0313 20.258,17.0313 l 53.27,304.7967 49.839,273.461 c 2.672,11.34 13.332,18.902 23.989,18.902 h 143.902 c 13.32,0 23.98,-5.671 26.652,-15.132 L 887.984,315.57 c 2.672,-11.34 18.657,-18.898 34.649,-18.898 h 431.697 c 29.32,0 42.64,20.789 37.31,41.578 M 701.441,803.18 c -13.32,0 -18.648,9.453 -15.984,18.894 l 34.648,179.556 c 5.325,30.24 10.657,43.47 18.645,43.47 8.004,0 13.32,-17.01 18.664,-43.47 l 34.637,-181.439 c 2.664,-17.011 -5.324,-17.011 -90.61,-17.011" style="fill:#2c5983;fill-opacity:1;fill-rule:nonzero;stroke:none" id="path14" />
            <path d="m 1842.84,296.68 c 21.33,0 37.32,11.332 37.32,24.558 v 984.672 c 0,17.01 13.32,26.46 31.98,26.46 h 266.47 c 21.32,0 37.32,11.34 37.32,26.46 v 332.64 c 0,15.11 -16,22.67 -34.64,22.67 H 1040.73 c -15.99,0 -23.98,-7.56 -23.98,-18.9 v -336.41 c 0,-11.34 18.65,-26.46 34.64,-26.46 h 266.48 c 18.65,0 34.65,-9.45 34.65,-22.68 V 323.129 c 0,-15.117 18.65,-26.449 37.31,-26.449 h 453.01" style="fill:#d3d4d4;fill-opacity:1;fill-rule:nonzero;stroke:none" id="path16" />
            <path d="M 759.305,201.57 H 744.422 L 659.922,1.73047 h 11.387 c 1.363,0 2.535,0.37891 3.504,1.14062 0.968,0.75 1.648,1.64063 2.039,2.66797 l 24.23,58.05074 h 101.41 L 826.863,5.53906 c 0.489,-1.12109 1.172,-2.03906 2.051,-2.73828 0.867,-0.71094 1.984,-1.07031 3.348,-1.07031 h 11.527 z M 747.77,175.148 c 0.683,1.711 1.363,3.563 2.043,5.59 0.683,2.024 1.371,4.172 2.05,6.422 0.676,-2.25 1.36,-4.398 2.039,-6.422 0.68,-2.027 1.36,-3.84 2.043,-5.437 L 798.121,74.3281 H 705.602 Z M 967.242,201.57 H 952.359 V 1.73047 H 1065.16 V 14.0195 h -97.918 z m 225.158,0 h -14.88 V 1.73047 h 112.8 V 14.0195 h -97.92 z m 316.95,0 v -12.3 h 72.96 V 1.73047 h 14.89 V 189.27 h 72.52 v 12.3 z m 431.35,0 h -15.02 v -93.211 h -129.3 v 93.211 h -15.03 V 1.73047 h 15.03 V 97.4883 h 129.3 V 1.73047 h 15.02 z m 137.17,0 V 1.73047 h 123.75 V 13.7383 H 2092.9 v 83.3203 h 90.48 v 11.7304 h -90.48 v 80.781 h 108.72 v 12 z M 2627.57,1.73047 h 13.28 l 61.14,173.41753 c 0.78,2.274 1.46,4.672 2.05,7.211 0.58,-2.539 1.26,-4.937 2.05,-7.211 L 2767.08,1.73047 h 13.42 L 2845.44,201.57 h -11.38 c -1.36,0 -2.55,-0.379 -3.58,-1.129 -1.02,-0.761 -1.68,-1.652 -1.97,-2.679 l -52.1,-164.2503 c -0.58,-1.8828 -1.07,-3.8906 -1.45,-6 -0.39,-2.1211 -0.83,-4.3125 -1.32,-6.582 -0.48,2.3711 -1,4.5703 -1.53,6.6406 -0.54,2.0703 -1.14,4.0586 -1.82,5.9414 l -58.36,164.2503 c -0.5,1.117 -1.18,2.039 -2.06,2.738 -0.86,0.719 -1.99,1.07 -3.35,1.07 h -4.09 c -1.35,0 -2.53,-0.379 -3.5,-1.129 -0.98,-0.761 -1.65,-1.652 -2.04,-2.679 L 2638.51,33.5117 c -0.68,-1.8828 -1.26,-3.9023 -1.75,-6.0703 -0.48,-2.1719 -0.97,-4.4414 -1.46,-6.7812 -0.47,2.3398 -0.93,4.6093 -1.38,6.7812 -0.44,2.168 -0.95,4.1875 -1.53,6.0703 l -52.1,164.2503 c -0.78,2.539 -2.57,3.808 -5.4,3.808 h -12.4 z M 3016.04,201.57 h -14.89 L 2916.65,1.73047 h 11.39 c 1.37,0 2.52,0.37891 3.5,1.14062 0.97,0.75 1.65,1.64063 2.05,2.66797 l 24.22,58.05074 h 101.41 L 3083.6,5.53906 c 0.48,-1.12109 1.16,-2.03906 2.05,-2.73828 0.87,-0.71094 1.98,-1.07031 3.35,-1.07031 h 11.52 z m -11.54,-26.422 c 0.68,1.711 1.36,3.563 2.04,5.59 0.68,2.024 1.37,4.172 2.06,6.422 0.67,-2.25 1.35,-4.398 2.04,-6.422 0.67,-2.027 1.35,-3.84 2.03,-5.437 l 42.19,-100.9729 h -92.52 z m 324.83,26.422 h -13.13 c -1.36,0 -2.48,-0.332 -3.36,-0.992 -0.87,-0.656 -1.6,-1.508 -2.18,-2.547 l -58.96,-91.793 c -1.36,-2.16 -2.53,-4.258 -3.5,-6.2771 -0.98,-2.0312 -1.85,-4.082 -2.63,-6.1523 -0.77,2.0703 -1.66,4.1211 -2.63,6.1523 -0.97,2.0191 -2.14,4.1171 -3.5,6.2771 l -59.1,91.793 c -0.78,1.141 -1.58,2.008 -2.41,2.617 -0.82,0.614 -1.92,0.922 -3.28,0.922 h -12.99 L 3237.98,84.1992 V 1.73047 h 15.03 V 84.1992 l 76.32,117.3708" style="fill:#181716;fill-opacity:1;fill-rule:nonzero;stroke:none" id="path18" />
            <path d="m 2043.59,1714.14 c -17.73,0 -30.4,-7.55 -27.87,-24.57 L 2258.86,321.238 c 2.53,-13.226 17.71,-24.558 35.45,-24.558 h 374.81 c 15.21,0 22.8,9.449 27.86,22.66 l 88.65,453.605 c 2.53,17.012 10.12,32.129 20.26,32.129 10.13,0 17.72,-13.23 20.25,-30.234 l 96.24,-457.379 c 2.53,-11.332 15.2,-20.781 30.39,-20.781 h 369.76 c 15.2,0 30.38,9.449 32.92,28.34 l 235.53,1362.67 c 2.53,15.12 -5.06,26.45 -30.39,26.45 h -410.28 c -15.19,0 -25.33,-9.44 -27.86,-22.68 l -50.64,-449.8 c -2.54,-20.8 -12.68,-35.91 -22.8,-35.91 -10.13,0 -17.72,15.11 -20.27,35.91 l -65.84,451.7 c -2.54,11.34 -17.72,20.78 -30.39,20.78 H 2674.2 c -17.73,0 -25.33,-9.44 -30.39,-24.57 l -60.79,-447.91 c -2.53,-20.8 -12.67,-35.91 -22.79,-35.91 -10.13,0 -17.74,15.11 -20.27,35.91 l -55.71,447.91 c -2.53,15.13 -20.26,24.57 -37.98,24.57 h -402.68" style="fill:#2c5983;fill-opacity:1;fill-rule:nonzero;stroke:none" id="path20" />
        </g>
    </g>
</svg>
