<svg xmlns="http://www.w3.org/2000/svg" viewBox="0 0 130 130"><defs><style>.cls-1,.cls-4{fill:#ecf2f4;}.cls-1{opacity:0.4;}.cls-2,.cls-3,.cls-6{fill:none;}.cls-2,.cls-3,.cls-4,.cls-5,.cls-6{stroke:#000;}.cls-2,.cls-4,.cls-5,.cls-6{stroke-linejoin:round;}.cls-3,.cls-7{stroke-miterlimit:10;}.cls-3{stroke-width:2.3px;}.cls-4,.cls-5,.cls-6{stroke-linecap:round;}.cls-4,.cls-5,.cls-6,.cls-7{stroke-width:1.5px;}.cls-5,.cls-7{fill:#00587c;}.cls-7{stroke:#1e1144;}</style></defs><g id="Layer_2" data-name="Layer 2"><path class="cls-1" d="M108.16,52.89c5.31,4.1,10.35,9.25,11.76,15.81,1.93,9-3.75,18.27-11.43,23.37s-17,6.93-26,8.66l-23.57,4.48c-10.07,1.92-22,3.31-29.19-4-6.61-6.71-5.88-17.67-3.23-26.71C32.71,53.18,47.71,33.69,67.29,23c10.93-6,16.43-7.56,20.07,3.79,4.16,13,9.9,17.75,20.8,26.15"/><line class="cls-2" x1="17.91" y1="88.07" x2="13.08" y2="88.07"/><line class="cls-2" x1="15.5" y1="85.65" x2="15.5" y2="90.48"/><line class="cls-2" x1="112.47" y1="96.98" x2="112.47" y2="101.56"/><line class="cls-2" x1="114.75" y1="99.27" x2="110.18" y2="99.27"/><line class="cls-2" x1="67.27" y1="20.76" x2="61.7" y2="20.76"/><line class="cls-2" x1="64.48" y1="17.98" x2="64.48" y2="23.55"/><line class="cls-3" x1="14.66" y1="117.07" x2="129.14" y2="117.07"/><line class="cls-3" x1="0.86" y1="117.07" x2="9.81" y2="117.07"/></g><g id="Layer_1" data-name="Layer 1"><path class="cls-4" d="M38,57.24a3,3,0,0,0-3.29,2C33.9,61.62,36,66,38.53,66"/><path class="cls-4" d="M67.45,57.24a3,3,0,0,1,3.29,2C71.5,61.62,69.36,66,66.87,66"/><path class="cls-5" d="M64.59,83.71l6.69,1.81A20,20,0,0,1,86.1,104.87V113a3.67,3.67,0,0,1-3.68,3.68H23.19A3.68,3.68,0,0,1,19.51,113v-8.13A20,20,0,0,1,34.33,85.52L41,83.71Z"/><path class="cls-4" d="M61.51,76.67,61.62,81a21.82,21.82,0,0,1-.18,2.8l-.52,1.39c-.18.54-1.42,1.54-1.67,1.76l-2,1.43c-2,1.59-5.64,1.14-7.48.72A5.45,5.45,0,0,1,48,88.4L46.19,87a5.45,5.45,0,0,1-1.38-2.35l-.47-1a39.93,39.93,0,0,1-.12-4.1V76.67l8.64,3.55Z"/><path class="cls-4" d="M67.16,52.17,67,63a20.3,20.3,0,0,1-1.16,8.44C64.19,75.71,57.19,81,53.45,81.47H51.88C48.13,81,41.14,75.71,39.52,71.4A20.3,20.3,0,0,1,38.36,63l-.21-11.78a6,6,0,0,1,1-3.34h0a15.92,15.92,0,0,1,13.25-7.4h.49A16.1,16.1,0,0,1,65.56,47.1h0A8.38,8.38,0,0,1,67.16,52.17Z"/><polyline class="cls-6" points="74.95 102.88 74.95 116.68 30.67 116.68 30.67 102.88"/><path class="cls-7" d="M96.65,23.5A20.53,20.53,0,1,0,117.18,44,20.52,20.52,0,0,0,96.65,23.5Zm0,37.08A16.56,16.56,0,1,1,113.2,44,16.55,16.55,0,0,1,96.65,60.58Zm5.11-8.64-7-5.11a1,1,0,0,1-.41-.8V32.44a1,1,0,0,1,1-1H98a1,1,0,0,1,1,1V44.16l5.53,4a1,1,0,0,1,.21,1.39l-1.55,2.14a1,1,0,0,1-1.4.22Z"/></g></svg>