<svg xmlns="http://www.w3.org/2000/svg" viewBox="0 0 130 130"><defs><style>.cls-1,.cls-5{fill:#ecf2f4;}.cls-1{opacity:0.4;}.cls-2,.cls-3,.cls-6{fill:none;}.cls-2,.cls-3,.cls-4,.cls-5,.cls-6{stroke:#000;}.cls-2,.cls-4,.cls-5,.cls-6{stroke-linejoin:round;}.cls-3{stroke-miterlimit:10;stroke-width:2.3px;}.cls-4{fill:#00587c;}.cls-4,.cls-5,.cls-6{stroke-linecap:round;stroke-width:1.5px;}</style></defs><g id="Layer_2" data-name="Layer 2"><path class="cls-1" d="M108.16,52.89c5.31,4.1,10.35,9.25,11.76,15.81,1.93,9-3.75,18.27-11.43,23.37s-17,6.93-26,8.66l-23.57,4.48c-10.07,1.92-22,3.31-29.19-4-6.61-6.71-5.88-17.67-3.23-26.71C32.71,53.18,47.71,33.69,67.29,23c10.93-6,16.43-7.56,20.07,3.79,4.16,13,9.9,17.75,20.8,26.15"/><line class="cls-2" x1="17.91" y1="88.07" x2="13.08" y2="88.07"/><line class="cls-2" x1="15.5" y1="85.65" x2="15.5" y2="90.48"/><line class="cls-2" x1="112.47" y1="96.98" x2="112.47" y2="101.56"/><line class="cls-2" x1="114.75" y1="99.27" x2="110.18" y2="99.27"/><line class="cls-2" x1="44.09" y1="21.28" x2="38.53" y2="21.28"/><line class="cls-2" x1="41.31" y1="18.5" x2="41.31" y2="24.07"/><line class="cls-3" x1="14.66" y1="117.07" x2="129.14" y2="117.07"/><line class="cls-3" x1="0.86" y1="117.07" x2="9.81" y2="117.07"/></g><g id="Layer_1" data-name="Layer 1"><path class="cls-4" d="M88.24,45.53a4.06,4.06,0,0,0-4.07-4.05H31.84a4.07,4.07,0,0,0-4.07,4.05V113a4.07,4.07,0,0,0,4.07,4.06H84.17A4.06,4.06,0,0,0,88.24,113Z"/><polygon class="cls-5" points="82.65 47.06 73.72 47.06 42.29 47.06 33.36 47.06 33.36 111.49 82.65 111.49 82.65 47.06"/><path class="cls-4" d="M73.72,41.23v6.2a2.27,2.27,0,0,1-2.26,2.26H44.57a2.27,2.27,0,0,1-2.28-2.26v-6.2A2.28,2.28,0,0,1,44.57,39h9V37.1a4.44,4.44,0,0,1,8.87,0V39h9A2.27,2.27,0,0,1,73.72,41.23Z"/><line class="cls-6" x1="53.25" y1="66.15" x2="72.34" y2="66.15"/><line class="cls-6" x1="53.25" y1="59.49" x2="77.74" y2="59.49"/><line class="cls-6" x1="53.25" y1="83.91" x2="72.34" y2="83.91"/><line class="cls-6" x1="53.25" y1="77.25" x2="77.74" y2="77.25"/><line class="cls-6" x1="53.25" y1="101.67" x2="72.34" y2="101.67"/><line class="cls-6" x1="53.25" y1="95.01" x2="77.74" y2="95.01"/><circle cx="58.01" cy="37.06" r="1.92"/><rect class="cls-4" x="38.81" y="57.92" width="9.8" height="9.8"/><polyline class="cls-6" points="50.83 57.25 43.81 64.26 41.91 62.37"/><rect class="cls-4" x="38.81" y="75.68" width="9.8" height="9.8"/><polyline class="cls-6" points="50.83 75.01 43.81 82.02 41.91 80.13"/><rect class="cls-4" x="38.81" y="93.44" width="9.8" height="9.8"/><polyline class="cls-6" points="50.83 92.77 43.81 99.78 41.91 97.89"/><rect class="cls-4" x="91.92" y="70.12" width="10.31" height="36.15"/><polygon class="cls-5" points="97.08 116.94 97.08 116.94 91.92 106.27 102.23 106.27 97.08 116.94"/><path class="cls-5" d="M102.22,63.74v6.38H91.92V63.78A2.75,2.75,0,0,1,94.66,61h4.79A2.77,2.77,0,0,1,102.22,63.74Z"/></g></svg>