<svg xmlns="http://www.w3.org/2000/svg" viewBox="0 0 130 130"><defs><style>.cls-1,.cls-4{fill:#ecf2f4;}.cls-1{opacity:0.4;}.cls-2,.cls-3,.cls-6{fill:none;}.cls-2,.cls-3,.cls-4,.cls-5,.cls-6{stroke:#000;}.cls-2,.cls-4,.cls-5,.cls-6{stroke-linejoin:round;}.cls-3{stroke-miterlimit:10;stroke-width:2.3px;}.cls-4,.cls-5,.cls-6{stroke-linecap:round;stroke-width:1.5px;}.cls-5{fill:#00587c;}</style></defs><g id="Layer_2" data-name="Layer 2"><path class="cls-1" d="M108.16,52.89c5.31,4.1,10.35,9.25,11.76,15.81,1.93,9-3.75,18.27-11.43,23.37s-17,6.93-26,8.66l-23.57,4.48c-10.07,1.92-22,3.31-29.19-4-6.61-6.71-5.88-17.67-3.23-26.71C32.71,53.18,47.71,33.69,67.29,23c10.93-6,16.43-7.56,20.07,3.79,4.16,13,9.9,17.75,20.8,26.15"/><line class="cls-2" x1="17.91" y1="88.07" x2="13.08" y2="88.07"/><line class="cls-2" x1="15.5" y1="85.65" x2="15.5" y2="90.48"/><line class="cls-2" x1="112.47" y1="96.98" x2="112.47" y2="101.56"/><line class="cls-2" x1="114.75" y1="99.27" x2="110.18" y2="99.27"/><line class="cls-2" x1="67.27" y1="20.76" x2="61.7" y2="20.76"/><line class="cls-2" x1="64.48" y1="17.98" x2="64.48" y2="23.55"/><line class="cls-3" x1="14.66" y1="117.07" x2="129.14" y2="117.07"/><line class="cls-3" x1="0.86" y1="117.07" x2="9.81" y2="117.07"/></g><g id="Layer_1" data-name="Layer 1"><path class="cls-4" d="M38,57.24a3,3,0,0,0-3.29,2C33.9,61.62,36,66,38.53,66"/><path class="cls-4" d="M67.45,57.24a3,3,0,0,1,3.29,2C71.5,61.62,69.36,66,66.87,66"/><path class="cls-5" d="M64.59,83.71l6.69,1.81A20,20,0,0,1,86.1,104.87V113a3.67,3.67,0,0,1-3.68,3.68H23.19A3.68,3.68,0,0,1,19.51,113v-8.13A20,20,0,0,1,34.33,85.52L41,83.71Z"/><polygon class="cls-4" points="61.45 76.67 61.45 80.66 52.81 87.95 44.16 80.66 44.16 76.67 52.81 80.22 61.45 76.67"/><polygon class="cls-5" points="44.16 80.66 41.02 83.71 46.26 94.14 52.81 87.95 44.16 80.66"/><polygon class="cls-5" points="61.45 80.66 64.59 83.71 59.35 94.14 52.81 87.95 61.45 80.66"/><path class="cls-4" d="M67.21,49.37,67,63a20.3,20.3,0,0,1-1.16,8.44C64.19,75.71,57.19,81,53.45,81.47H51.88C48.13,81,41.14,75.71,39.52,71.4A20.3,20.3,0,0,1,38.36,63l-.24-13.59Z"/><path class="cls-5" d="M67,61.05c-1.62-5.64-3.67-9.72-7.29-11,0,0-3,3.61-11.66,4.7a20.9,20.9,0,0,1-5.19,0c-4.24,2.11-4.5,8.24-4.5,8.24a21.33,21.33,0,0,1-1.44-9.87,21.37,21.37,0,0,1-5-2.88s2.31-2.31,5.49-5,4-10.46,16.58-8.93c13.37,1.62,14.43,13.5,14.43,13.5C69.2,53.06,67.89,59.41,67,61.05Z"/><path class="cls-5" d="M74.06,38.06A11.41,11.41,0,0,0,82.15,49v7.07l7.29-6.57h9.62a11.44,11.44,0,1,0,0-22.87H85.5A11.44,11.44,0,0,0,74.06,38.06Z"/><polyline class="cls-6" points="74.95 102.88 74.95 116.68 30.67 116.68 30.67 102.88"/></g></svg>