<svg xmlns="http://www.w3.org/2000/svg" viewBox="0 0 130 130"><defs><style>.cls-1,.cls-6{fill:#ecf2f4;}.cls-1{opacity:0.4;}.cls-2,.cls-3,.cls-4{fill:none;}.cls-2,.cls-3,.cls-4,.cls-5,.cls-6{stroke:#000;}.cls-2,.cls-4,.cls-5,.cls-6{stroke-linejoin:round;}.cls-3{stroke-miterlimit:10;stroke-width:2.3px;}.cls-4,.cls-5,.cls-6{stroke-linecap:round;stroke-width:1.5px;}.cls-5{fill:#00587c;}</style></defs><g id="Layer_2" data-name="Layer 2"><path class="cls-1" d="M108.16,52.89c5.31,4.1,10.35,9.25,11.76,15.81,1.93,9-3.75,18.27-11.43,23.37s-17,6.93-26,8.66l-23.57,4.48c-10.07,1.92-22,3.31-29.19-4-6.61-6.71-5.88-17.67-3.23-26.71C32.71,53.18,47.71,33.69,67.29,23c10.93-6,16.43-7.56,20.07,3.79,4.16,13,9.9,17.75,20.8,26.15"/><line class="cls-2" x1="17.91" y1="88.07" x2="13.08" y2="88.07"/><line class="cls-2" x1="15.5" y1="85.65" x2="15.5" y2="90.48"/><line class="cls-2" x1="112.47" y1="96.98" x2="112.47" y2="101.56"/><line class="cls-2" x1="114.75" y1="99.27" x2="110.18" y2="99.27"/><line class="cls-2" x1="44.09" y1="21.28" x2="38.53" y2="21.28"/><line class="cls-2" x1="41.31" y1="18.5" x2="41.31" y2="24.07"/><line class="cls-3" x1="14.66" y1="117.07" x2="129.14" y2="117.07"/><line class="cls-3" x1="0.86" y1="117.07" x2="9.81" y2="117.07"/></g><g id="Layer_1" data-name="Layer 1"><path class="cls-4" d="M63.47,93.54V63.77a4,4,0,0,0-4-4H24.58a4,4,0,0,0-3.95,4V93.54"/><path class="cls-5" d="M48.1,49H36a2.34,2.34,0,0,0-2.34,2.34v2.25a1.59,1.59,0,0,0,1.59,1.6H48.85a1.6,1.6,0,0,0,1.6-1.6V51.29A2.35,2.35,0,0,0,48.1,49Z"/><rect class="cls-5" x="18.05" y="112.02" width="48" height="4.92"/><rect class="cls-6" x="39.65" y="103.74" width="4.8" height="8.28"/><rect class="cls-6" x="39.27" y="55.14" width="5.55" height="33.84"/><path class="cls-5" d="M38,88.08h8a1.14,1.14,0,0,1,1.14,1.14v11.55a0,0,0,0,1,0,0H36.88a0,0,0,0,1,0,0V89.22A1.14,1.14,0,0,1,38,88.08Z"/><rect class="cls-5" x="34.75" y="100.02" width="14.59" height="3.72"/><path class="cls-4" d="M57.89,112s-2.4-27.31-4.8-35.34-11-7.57-11-7.57-8.65-.46-11,7.57S26.2,112,26.2,112Z"/><path class="cls-6" d="M86.43,76.63a34.19,34.19,0,0,1,19.77,6l-1.13,3.75a34.15,34.15,0,0,1-19.76-6Z"/><polygon class="cls-5" points="108.71 94.2 104.68 92.98 102.95 89.78 106.34 78.53 109.54 76.81 113.58 78.02 115.3 81.23 111.92 92.48 108.71 94.2"/><polygon class="cls-5" points="77.93 84.94 81.96 86.15 85.17 84.43 88.55 73.18 86.83 69.98 82.8 68.76 79.59 70.48 76.21 81.73 77.93 84.94"/><rect class="cls-6" x="46.43" y="32.49" width="74.96" height="4.56" rx="2.28"/><rect class="cls-5" x="55.43" y="22.17" width="8.79" height="25.2" rx="2.78"/><rect class="cls-5" x="50.78" y="27.69" width="4.65" height="14.16" rx="1.47"/><rect class="cls-5" x="103.6" y="22.17" width="8.79" height="25.2" rx="2.78"/><rect class="cls-5" x="112.39" y="27.69" width="4.65" height="14.16" rx="1.47"/><rect class="cls-5" x="70.01" y="92.26" width="27.6" height="24.81"/><polygon class="cls-6" points="87.51 100.47 83.81 98.29 80.11 100.47 80.11 92.26 87.51 92.26 87.51 100.47"/><path class="cls-5" d="M85,40.75a12,12,0,1,0,12,12A12,12,0,0,0,85,40.75Zm0,15.43a3.39,3.39,0,1,1,3.39-3.39A3.38,3.38,0,0,1,85,56.18Z"/><line class="cls-4" x1="90.48" y1="47.24" x2="87.35" y2="50.39"/><line class="cls-4" x1="82.55" y1="55.19" x2="79.4" y2="58.33"/><line class="cls-4" x1="82.55" y1="50.39" x2="79.4" y2="47.24"/><line class="cls-4" x1="90.48" y1="58.33" x2="87.35" y2="55.19"/></g></svg>