<svg xmlns="http://www.w3.org/2000/svg" viewBox="0 0 130 130"><defs><style>.cls-1,.cls-4{fill:#ecf2f4;}.cls-1{opacity:0.4;}.cls-2,.cls-3,.cls-7,.cls-8{fill:none;}.cls-2,.cls-3,.cls-4,.cls-5,.cls-6,.cls-7,.cls-9{stroke:#000;}.cls-2,.cls-4,.cls-5,.cls-6,.cls-8{stroke-linejoin:round;}.cls-3,.cls-7,.cls-9{stroke-miterlimit:10;}.cls-3{stroke-width:2.3px;}.cls-4,.cls-5,.cls-6,.cls-8,.cls-9{stroke-linecap:round;}.cls-4,.cls-5{stroke-width:1.5px;}.cls-5{fill:#00587c;}.cls-7{stroke-width:0.5px;}.cls-8{stroke:#0d0d0d;}.cls-9{fill:#e2eaf4;stroke-width:0.25px;}</style></defs><g id="Layer_2" data-name="Layer 2"><path class="cls-1" d="M108.16,52.89c5.31,4.1,10.35,9.25,11.76,15.81,1.93,9-3.75,18.27-11.43,23.37s-17,6.93-26,8.66l-23.57,4.48c-10.07,1.92-22,3.31-29.19-4-6.61-6.71-5.88-17.67-3.23-26.71C32.71,53.18,47.71,33.69,67.29,23c10.93-6,16.43-7.56,20.07,3.79,4.16,13,9.9,17.75,20.8,26.15"/><line class="cls-2" x1="17.91" y1="88.07" x2="13.08" y2="88.07"/><line class="cls-2" x1="15.5" y1="85.65" x2="15.5" y2="90.48"/><line class="cls-2" x1="119.08" y1="98.77" x2="119.08" y2="103.35"/><line class="cls-2" x1="121.37" y1="101.06" x2="116.79" y2="101.06"/><line class="cls-2" x1="67.27" y1="20.76" x2="61.7" y2="20.76"/><line class="cls-2" x1="64.48" y1="17.98" x2="64.48" y2="23.55"/><line class="cls-3" x1="14.66" y1="117.07" x2="129.14" y2="117.07"/><line class="cls-3" x1="0.86" y1="117.07" x2="9.81" y2="117.07"/></g><g id="Layer_1" data-name="Layer 1"><path class="cls-4" d="M40.83,79.12a10.69,10.69,0,0,1-1.28,5.29A6.19,6.19,0,0,1,37.91,89l-3.06-.87A4.77,4.77,0,0,1,36,84.44a10.43,10.43,0,0,1-.25-5.32"/><path class="cls-4" d="M28.13,79.12a10.56,10.56,0,0,0,1.28,5.29A6.14,6.14,0,0,0,31.05,89l3.06-.87a4.76,4.76,0,0,0-1.18-3.69,10.38,10.38,0,0,0,.26-5.32"/><path class="cls-5" d="M41.24,79.58A17.69,17.69,0,0,1,35.3,80a9.7,9.7,0,0,0-.82-2.88A10.22,10.22,0,0,0,33.65,80a17.72,17.72,0,0,1-5.94-.39s-.62-1.79,0-7.68c.23-2.35.5-4.09.73-5.34A18,18,0,0,1,29,63.93c0-.24.07-.49.11-.73H39.83c0,.24.06.49.1.73a18,18,0,0,1,.63,2.62c.23,1.25.49,3,.72,5.35C41.87,77.79,41.24,79.58,41.24,79.58Z"/><path class="cls-4" d="M49.26,31.26s.35,4.17-.43,6.44A9.25,9.25,0,0,0,48.29,40a1.75,1.75,0,0,1-.42,1,9.47,9.47,0,0,0-2,3.32c-.43,1.59-1.54,3.87-3.7,4.76a12.76,12.76,0,0,1-1,6.34,12.61,12.61,0,0,0-1.3,7.77L34.48,70,29.14,63.2a12.69,12.69,0,0,0-1.3-7.77,12.41,12.41,0,0,1-1-6.34,7,7,0,0,1-3.71-4.76,9.47,9.47,0,0,0-2-3.32,1.75,1.75,0,0,1-.42-1,9.25,9.25,0,0,0-.54-2.26c-.77-2.27-.43-6.44-.43-6.44a2.62,2.62,0,0,1-1-2.33,3.59,3.59,0,0,0,1.73.3l.58-.77-.84-.71.59-.43a3.31,3.31,0,0,1,1.39,1c.38.6-.42,2.21-.51,3.13a8.23,8.23,0,0,0,1.34,4,12.45,12.45,0,0,1,1.1,4.07c3.85,2.11,4.21,5.12,4.21,5.12,2,.17,3.62,1.84,4.37,2.79V45.66h3.57v1.79c.75-1,2.35-2.63,4.38-2.8,0,0,.35-3,4.21-5.12a12.61,12.61,0,0,1,1.09-4.07,8.23,8.23,0,0,0,1.34-4c-.09-.92-.88-2.53-.5-3.13a3.38,3.38,0,0,1,1.39-1l.59.43-.84.71.59.77a3.54,3.54,0,0,0,1.72-.3A2.65,2.65,0,0,1,49.26,31.26Z"/><rect x="11.85" y="27.58" width="12.54" height="1.29" transform="translate(-5.49 4.41) rotate(-12.05)"/><rect x="50.2" y="21.96" width="1.29" height="12.54" transform="translate(12.62 72.05) rotate(-77.95)"/><rect class="cls-5" x="8.34" y="23.55" width="51.78" height="3.78"/><path class="cls-6" d="M37.64,41.44l0,.07-.48.65V42c0-.34,0-1.44,0-2-.06-.7-.63-1.15-1-.65a2,2,0,0,1-.88.53,2.4,2.4,0,0,1-1.71,0,2,2,0,0,1-.88-.53c-.37-.5-.95-.05-1,.65,0,.53,0,1.63,0,2,0,.1,0,.16,0,.16l-.48-.66,0-.07a5.41,5.41,0,0,1-.4-2.23,3.45,3.45,0,0,1,3.68-3,3.43,3.43,0,0,1,3.66,3A5.1,5.1,0,0,1,37.64,41.44Z"/><path class="cls-4" d="M37.3,43.19A4.54,4.54,0,0,1,37,44.76a.91.91,0,0,1-.07.14,5.38,5.38,0,0,1-1.75,1.64,3.68,3.68,0,0,1-.76.05h-.09a3.77,3.77,0,0,1-.68-.05,5.51,5.51,0,0,1-1.74-1.65l-.05-.07a4.16,4.16,0,0,1-.36-1.63c-.64-.13-1.31-1.3-.81-1.67a.42.42,0,0,1,.51,0l.48.67s0-.07,0-.17c0-.35,0-1.44,0-2,.06-.69.64-1.15,1-.65a2,2,0,0,0,.88.54,2.3,2.3,0,0,0,1.71,0,2,2,0,0,0,.88-.54c.38-.5,1,0,1,.65,0,.54,0,1.63,0,2v.17l.48-.67a.41.41,0,0,1,.49,0C38.59,41.89,37.94,43.06,37.3,43.19Z"/><path class="cls-5" d="M33.34,67.92l-1,1.73a10.62,10.62,0,0,1-4-3.09A18,18,0,0,1,29,63.93c0-.24.07-.49.11-.73A14.68,14.68,0,0,1,33.34,67.92Z"/><path class="cls-5" d="M40.56,66.55a10.59,10.59,0,0,1-4,3.1l-1-1.73a14.77,14.77,0,0,1,4.21-4.72c0,.24.06.49.1.73A18,18,0,0,1,40.56,66.55Z"/><line class="cls-7" x1="32.93" y1="70.81" x2="33.86" y2="85.84"/><path class="cls-5" d="M33.34,67.93s1.13,1,1.14,1.72-.4,1.33-1,1.33a1.29,1.29,0,0,1-1.07-1.33Z"/><circle class="cls-5" cx="34.48" cy="92.05" r="7.17"/><circle class="cls-5" cx="34.48" cy="92.05" r="1.63"/><line class="cls-7" x1="36.02" y1="70.81" x2="34.64" y2="91.32"/><path class="cls-5" d="M35.62,67.93s-1.13,1-1.14,1.72S34.88,71,35.53,71a1.29,1.29,0,0,0,1.07-1.33Z"/><rect class="cls-5" x="103.86" y="103.38" width="3.25" height="13.63" transform="translate(210.97 220.38) rotate(-180)"/><line class="cls-8" x1="109.62" y1="117" x2="101.35" y2="117"/><path class="cls-4" d="M108.88,80.67c-1.23.75-1.87,1.62-4.28,1.61l-.31,6c1-.67,4.21-1.45,4.64-.51s.71,1.49,1.54,1.49a2.75,2.75,0,0,0,1.59-.71c.56.24,1.33-.33,1.33-.33s.18.78.73.91.84-.92.84-.92.35-.74,1.82-1a3.5,3.5,0,0,0,2-.77C119.42,76.79,114.21,78.62,108.88,80.67Z"/><path class="cls-6" d="M115.41,84.07s-.47-1-2.55-.51l-.23-.52s1.51-.75,1.08-1.8-2.12-.33-2.12-.33-2.36,1.49-3.16,1.06a1.77,1.77,0,0,1-.46-.34.68.68,0,0,1,0-1,12.09,12.09,0,0,0,2.17-2.33,4.47,4.47,0,0,1,3.28-1.8s4.39-.18,5.81,3.52a7.81,7.81,0,0,1-.27,6.19.65.65,0,0,1-1.11.1,2.09,2.09,0,0,1-.37-1c-.22-1.47-.87-2.18-1.44-1.75A8.26,8.26,0,0,1,115.41,84.07Z"/><path class="cls-4" d="M79.47,85.7a17.12,17.12,0,0,0,8.33-1.59,57,57,0,0,0,6.09-3,7.65,7.65,0,0,1,2.75-1,11.45,11.45,0,0,1,6.63,1c4.56,2.17,2.69,5.49,2.69,5.49A15,15,0,0,1,101,92c-2.29,1.33-7.11,2.39-9.43,2.84a7.05,7.05,0,0,1-2.15.1,4.79,4.79,0,0,0-2.14.17c-2.36,1-4.06.79-4.49.5"/><path class="cls-4" d="M38.4,103.51c1.14.06,1.08-.63,1.08-.63S54,95.52,56.25,95.4a30.16,30.16,0,0,1,3.88,0l6-2.46,2.46,8.07-5.12.5a9.3,9.3,0,0,1-5.51.83s-10,1.07-14,3a12.18,12.18,0,0,0-2.72,1.77Z"/><path class="cls-5" d="M42.69,101.81a1.16,1.16,0,0,0-.55.72c-.16.56.19,1.11.86,1.46s3,.79,2.67,1.29l-.16.23a6.42,6.42,0,0,0-.95,2.47v.13a4.63,4.63,0,0,0,.36,2.65,4.27,4.27,0,0,1,.52,1.57c-.09.52-1.16,1.1-1.37,1.08-.87-.1-1.7-1.27-2.67-2.38a5.67,5.67,0,0,1-1.13-2.85,10.15,10.15,0,0,0-.51-2.84c-.4-.74-1.34-2.91-.77-3.32a8.71,8.71,0,0,1,3.26-.87S43.08,101.1,42.69,101.81Z"/><path class="cls-4" d="M38.3,104.44c.1-.93,1.84-1.21,1.84-1.21S53.76,97.12,56.05,97a29.27,29.27,0,0,1,3.88,0l6-2.45,2.46,8.06-5.12.5a9.3,9.3,0,0,1-5.51.83s-10.54,1.53-14.49,3.41a8,8,0,0,0-2.19,1.32Z"/><path class="cls-5" d="M61.38,93.07a23.87,23.87,0,0,0,8.77-3.72c4.27-3,5.46-3.9,9.32-3.65,0,0,4.07,4.65,3.28,10.46a5.27,5.27,0,0,1-2.66,2,23.36,23.36,0,0,0-6.87,3.16c-3.74,2.81-9.06,3-9.06,3C64.45,100.56,61.12,98.45,61.38,93.07Z"/><path class="cls-5" d="M77.13,85.85c.74.86,4.18,6.41,3.73,12"/><path class="cls-5" d="M76.81,85.77s-1,.24-4.36,3.84-10.94,6.14-10.94,6.14"/><path class="cls-5" d="M40,103.6a1.26,1.26,0,0,0-.6.79c-.18.61.21,1.21.94,1.6s3.26.86,2.92,1.4c0,.09-.11.17-.17.26a6.91,6.91,0,0,0-1,2.7l0,.14a5.09,5.09,0,0,0,.4,2.91,4.71,4.71,0,0,1,.58,1.72c-.11.56-1.28,1.2-1.51,1.18-1-.11-1.86-1.39-2.93-2.61a6.26,6.26,0,0,1-1.23-3.11,11.11,11.11,0,0,0-.56-3.12c-.44-.8-1.47-3.18-.84-3.64a9.61,9.61,0,0,1,3.57-.95S40.46,102.82,40,103.6Z"/><rect class="cls-5" x="97.08" y="99.83" width="16.81" height="4.43" rx="1.26" transform="translate(210.97 204.08) rotate(-180)"/><path class="cls-4" d="M97.89,83.51s.46-1.43,3-1.43a3.78,3.78,0,0,1,3.68,3.34c0,1-1.13,3.7-4.86,3.25,0,0-2.13,1-3.15.79a9.33,9.33,0,0,1,0,4.52,31.84,31.84,0,0,1,2.07,4.56,10.77,10.77,0,0,1,3.79-.73,4.82,4.82,0,0,1,3,1.18c.55.63-1.4,1.74-3.08,1.82a12.54,12.54,0,0,0-3.57.87s-.87.78-2.18-1c-1-1.41-3.13-4.28-4-5.49a10.78,10.78,0,0,1-.8-1.23c-.37-.68-.95-1.76-1.42-2.8-.7-1.53-1.32-3.9-.6-4.83a12.6,12.6,0,0,1,5.81-3A8.56,8.56,0,0,1,97.89,83.51Z"/><path class="cls-4" d="M80.48,50.85a12.42,12.42,0,0,1-1.22,3.37,16.66,16.66,0,0,1,.82,6.18,29.14,29.14,0,0,1-.48,3l1.55,7.37c-.67,2.34-1.84,1.3-3.17-.73,0,0-1.88-3.62-1.8-6.62a25.21,25.21,0,0,1-1.54-7.7l.5-6.76C77.72,48.64,79.71,49,80.48,50.85Z"/><path class="cls-5" d="M81.15,70.75a5.94,5.94,0,0,1,.14,2.6c-.31,1-2.64,2.64-3.75,2.77a1.54,1.54,0,0,1-1.75-1.34c.1-.89,1.81-1.57,2.11-3.36C78,70.32,78,70,78,70s1-.37,1.39.36.86,1.07,1.25.92A1,1,0,0,0,81.15,70.75Z"/><path class="cls-4" d="M86.84,50.85a12.64,12.64,0,0,0,1.23,3.37,16.66,16.66,0,0,0-.82,6.18,29.14,29.14,0,0,0,.48,3l-1.55,7.37c.73,3.65,2,1,3.17-.73,0,0,1.88-3.62,1.8-6.62a25,25,0,0,0,1.53-7.7l-.25-6.76C90.15,49,87.94,49.1,86.84,50.85Z"/><path class="cls-5" d="M86.18,70.75a5.94,5.94,0,0,0-.14,2.6c.31,1,2.64,2.64,3.75,2.77a1.54,1.54,0,0,0,1.75-1.34c-.1-.89-1.81-1.57-2.11-3.36-.08-1.1-.08-1.4-.08-1.4s-1-.37-1.39.36-.86,1.07-1.25.92A1,1,0,0,1,86.18,70.75Z"/><path class="cls-5" d="M93.72,47.19,91.9,49.66c-2.92-.57-5.76,1.67-5.76,1.67a14.25,14.25,0,0,1-3-4.59,33.85,33.85,0,0,0-2,4.59s-2.84-2.24-5.76-1.67l-1.82-2.47,2.57-6.59A7.66,7.66,0,0,0,77.53,42a8.7,8.7,0,0,0,8.68,1.3,18.13,18.13,0,0,0,4.94-2.74Z"/><path class="cls-4" d="M90,39.31s.18.7.39,1.77A32.25,32.25,0,0,1,91,45c3.1.23,4.42-.52,4.83-.8,0-1.09,0-2.22,0-3.32a39.62,39.62,0,0,0-.59-5.71,4.62,4.62,0,0,0-1-2.23c-2.62-3.19-7.56-4.18-7.56-4.18H80.7s-4.94,1-7.56,4.18a4.62,4.62,0,0,0-1,2.23,38.22,38.22,0,0,0-.59,5.71c0,1.07,0,2.18,0,3.24.45.32,1.84,1.09,4.83.92v0a31.31,31.31,0,0,1,.49-3.69c.23-1.23.44-2.08.44-2.08s-.37,1.69-.44,2.08c4.24,5.19,10.22,3.68,13.58-.31C90.33,40.6,90.16,39.83,90,39.31Z"/><path class="cls-9" d="M80.34,27.87c0,.12,0,.2,0,.2l-.58-.84a2,2,0,0,1,.54.64Z"/><path class="cls-9" d="M87.57,27.25l-.58.82v-.2h0A2,2,0,0,1,87.57,27.25Z"/><path class="cls-9" d="M87,27.87a1.35,1.35,0,0,0,0,.2l.59-.84a2,2,0,0,0-.54.64Z"/><path class="cls-9" d="M79.74,27.25l.58.82v-.2h0A2,2,0,0,0,79.74,27.25Z"/><path class="cls-6" d="M87.63,27.16l-.06.09-.58.82v-.2c0-.44,0-1.44,0-2.11-.07-.88-.76-.64-1.22,0a2.37,2.37,0,0,1-1.06.67,2.75,2.75,0,0,1-2.07,0,2.35,2.35,0,0,1-1.07-.67c-.45-.64-1.15-.88-1.22,0,0,.67,0,1.67,0,2.11,0,.12,0,.2,0,.2l-.58-.84-.06-.08a7,7,0,0,1-.48-2.83c.19-1.12.94-2.92,4.45-2.92s4.26,1.8,4.43,2.92A6.82,6.82,0,0,1,87.63,27.16Z"/><path class="cls-4" d="M87.21,29.38a5.44,5.44,0,0,1-.5,2.17c-.46.73-1.25,2-1.84,2.07a6.79,6.79,0,0,1-1.06.08h-.29a6.79,6.79,0,0,1-1.06-.08c-.6-.11-1.38-1.36-1.84-2.09a5.37,5.37,0,0,1-.5-2.15c-.77-.17-1.57-1.65-1-2.12a.5.5,0,0,1,.62,0l.58.84s0-.08,0-.2c0-.44,0-1.44,0-2.11.07-.88.77-.64,1.22,0a2.35,2.35,0,0,0,1.07.67,2.75,2.75,0,0,0,2.07,0,2.37,2.37,0,0,0,1.06-.67c.46-.64,1.15-.88,1.22,0,0,.67,0,1.67,0,2.11v.2l.58-.82a.48.48,0,0,1,.61,0C88.78,27.73,88,29.21,87.21,29.38Z"/><path class="cls-5" d="M66.34,64.55c0,3.72-.51,6.72-1.14,6.72s-1.15-3-1.15-6.72.51-6.7,1.15-6.7S66.34,60.84,66.34,64.55Z"/><path class="cls-5" d="M65.2,57.85c-.64,0-1.15,3-1.15,6.7s.51,6.72,1.15,6.72H60.51c-.63,0-1.15-3-1.15-6.72s.52-6.7,1.15-6.7Z"/><path class="cls-5" d="M101,64.55c0,3.72.51,6.72,1.14,6.72s1.15-3,1.15-6.72-.51-6.7-1.15-6.7S101,60.84,101,64.55Z"/><path class="cls-5" d="M102.13,57.85c.64,0,1.15,3,1.15,6.7s-.51,6.72-1.15,6.72h4.69c.63,0,1.15-3,1.15-6.72s-.52-6.7-1.15-6.7Z"/><path class="cls-5" d="M102,64.56a.63.63,0,0,1-.63.63H65.84a.64.64,0,0,1-.65-.63.65.65,0,0,1,.65-.64h35.49A.64.64,0,0,1,102,64.56Z"/><path class="cls-4" d="M74.85,54.85c-.66,1.61-.67,5.59-.61,8a1.15,1.15,0,0,1,1,1.05c0,1-.27,1.35-.84,1.45-.75.13-2.37.49-2.66-.26,0-.16-.06-.3-.09-.45v0c-1.67-9,0-15,0-15s-.06-2.53,0-5.48c.44.33,1.82,1.09,4.79.92a31.52,31.52,0,0,1-.93,4.56A14.6,14.6,0,0,1,74.85,54.85Z"/><path class="cls-4" d="M92.3,54.85c.66,1.61.67,5.59.62,8a1.14,1.14,0,0,0-1,1.05c0,1,.27,1.35.84,1.45.75.13,2.36.49,2.66-.26,0-.16,0-.3.08-.45v0c1.68-9,0-15,0-15s.06-2.53,0-5.48c-.44.33-1.83,1.09-4.8.92a31.52,31.52,0,0,0,.93,4.56A14.6,14.6,0,0,0,92.3,54.85Z"/></g></svg>