<svg xmlns="http://www.w3.org/2000/svg" viewBox="0 0 130 130"><defs><style>.cls-1,.cls-4,.cls-7{fill:#ecf2f4;}.cls-1{opacity:0.4;}.cls-2,.cls-3{fill:none;}.cls-2,.cls-3,.cls-4,.cls-5,.cls-6,.cls-7{stroke:#000;}.cls-2,.cls-4,.cls-5,.cls-6,.cls-7{stroke-linejoin:round;}.cls-3{stroke-miterlimit:10;stroke-width:2.3px;}.cls-4,.cls-5,.cls-6,.cls-7{stroke-linecap:round;}.cls-5,.cls-6{fill:#00587c;}.cls-6,.cls-7{stroke-width:1.5px;}</style></defs><g id="Layer_2" data-name="Layer 2"><path class="cls-1" d="M108.16,52.89c5.31,4.1,10.35,9.25,11.76,15.81,1.93,9-3.75,18.27-11.43,23.37s-17,6.93-26,8.66l-23.57,4.48c-10.07,1.92-22,3.31-29.19-4-6.61-6.71-5.88-17.67-3.23-26.71C32.71,53.18,47.71,33.69,67.29,23c10.93-6,16.43-7.56,20.07,3.79,4.16,13,9.9,17.75,20.8,26.15"/><line class="cls-2" x1="17.91" y1="88.07" x2="13.08" y2="88.07"/><line class="cls-2" x1="15.5" y1="85.65" x2="15.5" y2="90.48"/><line class="cls-2" x1="119.08" y1="98.77" x2="119.08" y2="103.35"/><line class="cls-2" x1="121.37" y1="101.06" x2="116.79" y2="101.06"/><line class="cls-2" x1="67.27" y1="20.76" x2="61.7" y2="20.76"/><line class="cls-2" x1="64.48" y1="17.98" x2="64.48" y2="23.55"/><line class="cls-3" x1="14.66" y1="117.07" x2="129.14" y2="117.07"/><line class="cls-3" x1="0.86" y1="117.07" x2="9.81" y2="117.07"/></g><g id="Layer_1" data-name="Layer 1"><rect class="cls-4" x="10.84" y="57.05" width="53.01" height="2.15" rx="0.7"/><path class="cls-5" d="M16.85,52H15.68a1.19,1.19,0,0,0-1,1.31v9.27a1.19,1.19,0,0,0,1,1.31h1.17a1.19,1.19,0,0,0,1-1.31V53.34A1.19,1.19,0,0,0,16.85,52Z"/><path class="cls-5" d="M14.14,54.64h-.62a.63.63,0,0,0-.53.69v5.29a.63.63,0,0,0,.53.69h.62a.63.63,0,0,0,.53-.69V55.33A.63.63,0,0,0,14.14,54.64Z"/><path class="cls-5" d="M57.85,52.26H59a1.2,1.2,0,0,1,1,1.31v9.27a1.2,1.2,0,0,1-1,1.31H57.85a1.19,1.19,0,0,1-1-1.31V53.57A1.19,1.19,0,0,1,57.85,52.26Z"/><path class="cls-5" d="M60.57,54.86h.62a.63.63,0,0,1,.54.7v5.29a.63.63,0,0,1-.54.69h-.62a.63.63,0,0,1-.53-.69V55.56A.63.63,0,0,1,60.57,54.86Z"/><rect class="cls-6" x="101.68" y="105.47" width="2.84" height="11.9" transform="translate(206.21 222.83) rotate(-180)"/><rect class="cls-6" x="95.76" y="102.37" width="14.68" height="3.86" rx="1.26" transform="translate(206.21 208.6) rotate(-180)"/><path class="cls-7" d="M48.42,104.08H71.31A3.73,3.73,0,0,1,75,107.81v0a3.73,3.73,0,0,1-3.73,3.73H48.42a.71.71,0,0,1-.71-.71v-6a.71.71,0,0,1,.71-.71Z" transform="translate(169.47 168.69) rotate(149.04)"/><path class="cls-6" d="M96.56,87.14h0a6.49,6.49,0,0,0-8.89-2.23L68.28,96.54a2.23,2.23,0,0,0-.76,3l4.39,7.31a2.21,2.21,0,0,0,3,.76L94.33,96A6.48,6.48,0,0,0,96.56,87.14Z"/><path class="cls-7" d="M101.7,101.84a1.85,1.85,0,0,1-1,0L87.79,98.11a2.08,2.08,0,0,1-1.32-1.19,2.05,2.05,0,0,1,.11-1.76l3.12-5.61a2,2,0,1,1,3.56,2L91.39,94.9l10.48,3a2,2,0,0,1-.17,4Z"/><circle class="cls-7" cx="103.66" cy="83.46" r="6.11"/><path class="cls-6" d="M31.71,92.56h5.86a0,0,0,0,1,0,0v20.65a2.93,2.93,0,0,1-2.93,2.93h0a2.93,2.93,0,0,1-2.93-2.93V92.56a0,0,0,0,1,0,0Z"/><path class="cls-6" d="M37.84,92.56H43.7a0,0,0,0,1,0,0v20.65a2.93,2.93,0,0,1-2.93,2.93h0a2.93,2.93,0,0,1-2.93-2.93V92.56A0,0,0,0,1,37.84,92.56Z"/><path class="cls-7" d="M51.08,59.8l-2.25,8.07L43,74.68H32.45l-5.87-6.81L24.33,59.8H20.56l2.65,9.91a1.79,1.79,0,0,0,.42.76l6.17,9.66a.53.53,0,0,0,.12.1v14A2.12,2.12,0,0,0,32,96.34H43.38a2.12,2.12,0,0,0,2.11-2.12v-14a.53.53,0,0,0,.12-.1l6.17-9.66a1.79,1.79,0,0,0,.42-.76l2.65-9.91Z"/><circle class="cls-7" cx="37.9" cy="69.58" r="4.95"/></g></svg>