<svg version="1.1" id="svg2" xmlns="http://www.w3.org/2000/svg" x="0" y="0" viewBox="0 0 478.9 228.5" xml:space="preserve"><style>.st0{fill:#fff}</style><g id="g10" transform="matrix(1.33333 0 0 -1.33333 0 228.547)"><g id="g12" transform="scale(.1)"><path id="path14" class="st0" d="M1391.6 338.3l-365.1 1351.3c-2.7 13.2-16 24.6-34.6 24.6H472.3c-16 0-29.3-13.2-32-22.7L83.2 328.8c-.3-.9-.3-1.7-.4-2.6-.5-1.2-.8-2.1-.8-2.1L.7 16.7C-3.7 0 13.6 0 13.6 0h503.2C534.1 0 537 17 537 17l53.3 304.8 49.8 273.5c2.7 11.3 13.3 18.9 24 18.9H808c13.3 0 24-5.7 26.7-15.1L888 315.6c2.7-11.3 18.7-18.9 34.6-18.9h431.7c29.4 0 42.7 20.8 37.3 41.6M701.4 803.2c-13.3 0-18.6 9.5-16 18.9l34.6 179.6c5.3 30.2 10.7 43.5 18.6 43.5 8 0 13.3-17 18.7-43.5l34.6-181.4c2.8-17.1-5.2-17.1-90.5-17.1"/><path id="path16" class="st0" d="M1842.8 296.7c21.3 0 37.3 11.3 37.3 24.6V1306c0 17 13.3 26.5 32 26.5h266.5c21.3 0 37.3 11.3 37.3 26.5v332.6c0 15.1-16 22.7-34.6 22.7H1040.7c-16 0-24-7.6-24-18.9V1359c0-11.3 18.7-26.5 34.6-26.5h266.5c18.7 0 34.7-9.4 34.7-22.7V323.1c0-15.1 18.7-26.4 37.3-26.4h453"/><path id="path18" class="st0" d="M759.3 201.6h-14.9L659.9 1.7h11.4c1.4 0 2.5.4 3.5 1.1 1 .8 1.6 1.6 2 2.7L701 63.6h101.4l24.4-58.1c.5-1.1 1.2-2 2.1-2.7.9-.7 2-1.1 3.3-1.1h11.5l-84.4 199.9zm-11.5-26.5c.7 1.7 1.4 3.6 2 5.6.7 2 1.4 4.2 2 6.4.7-2.3 1.4-4.4 2-6.4.7-2 1.4-3.8 2-5.4l42.2-101h-92.5l42.3 100.8zm219.4 26.5h-14.9V1.7h112.8V14h-97.9v187.6zm225.2 0h-14.9V1.7h112.8V14h-97.9v187.6zm317 0v-12.3h73V1.7h14.9v187.5h72.5v12.3h-160.4zm431.3 0h-15v-93.2h-129.3v93.2h-15V1.7h15v95.8h129.3V1.7h15v199.9zm137.2 0V1.7h123.8v12H2093V97h90.5v11.7H2093v80.8h108.7v12l-123.8.1zM2627.6 1.7h13.3l61.1 173.4c.8 2.3 1.5 4.7 2.1 7.2.6-2.5 1.3-4.9 2.1-7.2l61-173.4h13.4l64.9 199.8h-11.4c-1.4 0-2.6-.4-3.6-1.1-1-.8-1.7-1.7-2-2.7l-52.1-164.3c-.6-1.9-1.1-3.9-1.4-6-.4-2.1-.8-4.3-1.3-6.6-.5 2.4-1 4.6-1.5 6.6-.5 2.1-1.1 4.1-1.8 5.9L2712 197.6c-.5 1.1-1.2 2-2.1 2.7-.9.7-2 1.1-3.4 1.1h-4.1c-1.4 0-2.5-.4-3.5-1.1-1-.8-1.6-1.7-2-2.7l-58.4-164.3c-.7-1.9-1.3-3.9-1.8-6.1-.5-2.2-1-4.4-1.5-6.8-.5 2.3-.9 4.6-1.4 6.8-.4 2.2-.9 4.2-1.5 6.1l-52.1 164.3c-.8 2.5-2.6 3.8-5.4 3.8h-12.4l65.2-199.7zM3016 201.6h-14.9L2916.7 1.7h11.4c1.4 0 2.5.4 3.5 1.1 1 .8 1.6 1.6 2.1 2.7l24.2 58.1h101.4l24.4-58.1c.5-1.1 1.2-2 2.1-2.7.9-.7 2-1.1 3.4-1.1h11.5L3016 201.6zm-11.5-26.5c.7 1.7 1.4 3.6 2 5.6.7 2 1.4 4.2 2.1 6.4.7-2.3 1.4-4.4 2-6.4.7-2 1.4-3.8 2-5.4l42.2-101h-92.5l42.2 100.8zm324.8 26.5h-13.1c-1.4 0-2.5-.3-3.4-1-.9-.7-1.6-1.5-2.2-2.5l-59-91.8c-1.4-2.2-2.5-4.3-3.5-6.3s-1.9-4.1-2.6-6.2c-.8 2.1-1.7 4.1-2.6 6.2-1 2-2.1 4.1-3.5 6.3l-59.1 91.8c-.8 1.1-1.6 2-2.4 2.6-.8.6-1.9.9-3.3.9h-13L3238 84.2V1.7h15v82.5l76.3 117.4"/><path id="path20" class="st0" d="M2043.6 1714.1c-17.7 0-30.4-7.6-27.9-24.6l243.1-1368.3c2.5-13.2 17.7-24.6 35.4-24.6H2669c15.2 0 22.8 9.4 27.9 22.7l88.6 453.6c2.5 17 10.1 32.1 20.3 32.1 10.1 0 17.7-13.2 20.2-30.2l96.2-457.4c2.5-11.3 15.2-20.8 30.4-20.8h369.8c15.2 0 30.4 9.4 32.9 28.3L3591 1687.7c2.5 15.1-5.1 26.4-30.4 26.4h-410.3c-15.2 0-25.3-9.4-27.9-22.7l-50.6-449.8c-2.5-20.8-12.7-35.9-22.8-35.9-10.1 0-17.7 15.1-20.3 35.9l-65.8 451.7c-2.5 11.3-17.7 20.8-30.4 20.8h-258.3c-17.7 0-25.3-9.4-30.4-24.6l-60.8-447.9c-2.5-20.8-12.7-35.9-22.8-35.9-10.1 0-17.7 15.1-20.3 35.9l-55.7 447.9c-2.5 15.1-20.3 24.6-38 24.6h-402.6"/></g></g></svg>