<svg xmlns="http://www.w3.org/2000/svg" viewBox="0 0 130 130"><defs><style>.cls-1,.cls-6{fill:#ecf2f4;}.cls-1{opacity:0.4;}.cls-2,.cls-3,.cls-4{fill:none;}.cls-2,.cls-3,.cls-4,.cls-5,.cls-6{stroke:#000;}.cls-2,.cls-4,.cls-5,.cls-6{stroke-linejoin:round;}.cls-3{stroke-miterlimit:10;stroke-width:2.3px;}.cls-4,.cls-5,.cls-6{stroke-linecap:round;stroke-width:1.5px;}.cls-5{fill:#00587c;}</style></defs><g id="Layer_2" data-name="Layer 2"><path class="cls-1" d="M108.16,52.89c5.31,4.1,10.35,9.25,11.76,15.81,1.93,9-3.75,18.27-11.43,23.37s-17,6.93-26,8.66l-23.57,4.48c-10.07,1.92-22,3.31-29.19-4-6.61-6.71-5.88-17.67-3.23-26.71C32.71,53.18,47.71,33.69,67.29,23c10.93-6,16.43-7.56,20.07,3.79,4.16,13,9.9,17.75,20.8,26.15"/><line class="cls-2" x1="17.91" y1="88.07" x2="13.08" y2="88.07"/><line class="cls-2" x1="15.5" y1="85.65" x2="15.5" y2="90.48"/><line class="cls-2" x1="112.47" y1="96.98" x2="112.47" y2="101.56"/><line class="cls-2" x1="114.75" y1="99.27" x2="110.18" y2="99.27"/><line class="cls-2" x1="44.09" y1="21.28" x2="38.53" y2="21.28"/><line class="cls-2" x1="41.31" y1="18.5" x2="41.31" y2="24.07"/><line class="cls-3" x1="14.66" y1="117.07" x2="129.14" y2="117.07"/><line class="cls-3" x1="0.86" y1="117.07" x2="9.81" y2="117.07"/></g><g id="Layer_1" data-name="Layer 1"><path class="cls-4" d="M65.08,92.75V61.68A4.12,4.12,0,0,0,61,57.56H24.5a4.13,4.13,0,0,0-4.12,4.12V92.75"/><path class="cls-5" d="M49.05,46.21H36.41A2.45,2.45,0,0,0,34,48.66V51a1.66,1.66,0,0,0,1.66,1.66h14.2A1.66,1.66,0,0,0,51.5,51V48.66A2.45,2.45,0,0,0,49.05,46.21Z"/><rect class="cls-5" x="17.69" y="112.03" width="50.09" height="5.13"/><rect class="cls-6" x="40.23" y="103.39" width="5.01" height="8.64"/><rect class="cls-6" x="39.84" y="52.67" width="5.79" height="35.31"/><path class="cls-5" d="M38.48,87H47a1.14,1.14,0,0,1,1.14,1.14v12.1a0,0,0,0,1,0,0H37.34a0,0,0,0,1,0,0V88.19A1.14,1.14,0,0,1,38.48,87Z"/><rect class="cls-5" x="35.12" y="99.51" width="15.22" height="3.88"/><path class="cls-4" d="M59.27,112s-2.51-28.5-5-36.88-11.53-7.9-11.53-7.9-9-.48-11.52,7.9-5,36.88-5,36.88Z"/><rect class="cls-6" x="70.07" y="87.93" width="32.7" height="29.39"/><polygon class="cls-5" points="90.8 97.65 86.41 95.08 82.03 97.65 82.03 87.93 90.8 87.93 90.8 97.65"/><path class="cls-6" d="M98.83,111.1a19.92,19.92,0,0,1,12,0v2.29a20,20,0,0,1-12,0Z"/><polygon class="cls-5" points="114.2 117.2 111.74 117.2 110.25 115.69 110.27 108.85 111.77 107.35 114.22 107.36 115.72 108.86 115.7 115.71 114.2 117.2"/><polygon class="cls-5" points="95.47 117.15 97.92 117.16 99.42 115.67 99.44 108.82 97.95 107.32 95.49 107.31 93.99 108.81 93.97 115.65 95.47 117.15"/><rect class="cls-6" x="46.88" y="109.16" width="41.62" height="2.53" rx="1.07"/><rect class="cls-5" x="51.88" y="103.43" width="4.88" height="13.99" rx="1.54"/><rect class="cls-5" x="49.3" y="106.49" width="2.58" height="7.86" rx="0.82"/><rect class="cls-5" x="78.62" y="103.43" width="4.88" height="13.99" rx="1.54"/><rect class="cls-5" x="83.5" y="106.49" width="2.58" height="7.86" rx="0.82"/></g></svg>