<svg xmlns="http://www.w3.org/2000/svg" viewBox="0 0 130 130"><defs><style>.cls-1,.cls-5{fill:#ecf2f4;}.cls-1{opacity:0.4;}.cls-2,.cls-3{fill:none;}.cls-2,.cls-3,.cls-4,.cls-5{stroke:#000;}.cls-2,.cls-4,.cls-5{stroke-linejoin:round;}.cls-3{stroke-miterlimit:10;stroke-width:2.3px;}.cls-4{fill:#00587c;}.cls-4,.cls-5{stroke-linecap:round;stroke-width:1.5px;}</style></defs><g id="Layer_2" data-name="Layer 2"><path class="cls-1" d="M108.16,52.89c5.31,4.1,10.35,9.25,11.76,15.81,1.93,9-3.75,18.27-11.43,23.37s-17,6.93-26,8.66l-23.57,4.48c-10.07,1.92-22,3.31-29.19-4-6.61-6.71-5.88-17.67-3.23-26.71C32.71,53.18,47.71,33.69,67.29,23c10.93-6,16.43-7.56,20.07,3.79,4.16,13,9.9,17.75,20.8,26.15"/><line class="cls-2" x1="17.91" y1="88.07" x2="13.08" y2="88.07"/><line class="cls-2" x1="15.5" y1="85.65" x2="15.5" y2="90.48"/><line class="cls-2" x1="112.47" y1="96.98" x2="112.47" y2="101.56"/><line class="cls-2" x1="114.75" y1="99.27" x2="110.18" y2="99.27"/><line class="cls-2" x1="67.27" y1="20.76" x2="61.7" y2="20.76"/><line class="cls-2" x1="64.48" y1="17.98" x2="64.48" y2="23.55"/><line class="cls-3" x1="14.66" y1="117.07" x2="129.14" y2="117.07"/><line class="cls-3" x1="0.86" y1="117.07" x2="9.81" y2="117.07"/></g><g id="Layer_1" data-name="Layer 1"><rect class="cls-4" x="41.36" y="95.92" width="55.68" height="5.64"/><path class="cls-4" d="M100.19,93.67v19a4.24,4.24,0,0,0,4.23,4.23h0a4.23,4.23,0,0,0,4.23-4.23V89.56A4.52,4.52,0,0,0,104.12,85H89.57S86.43,79.9,77.7,79.54s-17.17,1.08-19.42,5.4,0,8,4.56,8.46Z"/><circle class="cls-5" cx="47.72" cy="86.47" r="6.98"/><path class="cls-4" d="M61.79,66.13V87.22a3.12,3.12,0,0,0,6.24,0V66.13Z"/><path class="cls-4" d="M34.1,54.25a146.05,146.05,0,0,1-1.42,23.19,71.29,71.29,0,0,1,3.49,19.23c.16,6.31-1.87,13.29-3.39,17.57a4.23,4.23,0,0,1-5.52,2.55h0a4.22,4.22,0,0,1-2.56-5.16c2.19-7.06,2.56-16.87.86-26.58,0,0-5.31-1.29-6.37-6.49-1-4.92-1.06-23.6,6.73-27.44,3.7-1.83,6-.47,7.13.63A3.62,3.62,0,0,1,34.1,54.25Z"/><circle class="cls-5" cx="36.87" cy="42.31" r="7.91"/><circle class="cls-4" cx="64.91" cy="55.92" r="11.48"/><circle class="cls-5" cx="64.91" cy="55.92" r="3.92"/><path class="cls-4" d="M52.61,70.05a27.48,27.48,0,0,1-24.67-9.11,2.91,2.91,0,0,1,.24-4.12h0a2.92,2.92,0,0,1,4.1.25c2.84,3.11,9.18,8.16,19.62,6.95a2.93,2.93,0,0,1,3,1.7l0,.07A3,3,0,0,1,52.61,70.05Z"/></g></svg>