<svg xmlns="http://www.w3.org/2000/svg" viewBox="0 0 130 130"><defs><style>.cls-1{fill:#ecf2f4;opacity:0.4;}.cls-2,.cls-3{fill:none;stroke:#000;}.cls-2{stroke-linejoin:round;}.cls-3,.cls-4{stroke-miterlimit:10;}.cls-3{stroke-width:2.3px;}.cls-4{fill:#00587c;stroke:#1e1144;stroke-width:1.5px;}</style></defs><g id="Layer_2" data-name="Layer 2"><path class="cls-1" d="M108.16,52.89c5.31,4.1,10.35,9.25,11.76,15.81,1.93,9-3.75,18.27-11.43,23.37s-17,6.93-26,8.66l-23.57,4.48c-10.07,1.92-22,3.31-29.19-4-6.61-6.71-5.88-17.67-3.23-26.71C32.71,53.18,47.71,33.69,67.29,23c10.93-6,16.43-7.56,20.07,3.79,4.16,13,9.9,17.75,20.8,26.15"/><line class="cls-2" x1="17.91" y1="88.07" x2="13.08" y2="88.07"/><line class="cls-2" x1="15.5" y1="85.65" x2="15.5" y2="90.48"/><line class="cls-2" x1="112.47" y1="96.98" x2="112.47" y2="101.56"/><line class="cls-2" x1="114.75" y1="99.27" x2="110.18" y2="99.27"/><line class="cls-2" x1="67.27" y1="20.76" x2="61.7" y2="20.76"/><line class="cls-2" x1="64.48" y1="17.98" x2="64.48" y2="23.55"/><line class="cls-3" x1="14.66" y1="117.07" x2="129.14" y2="117.07"/><line class="cls-3" x1="0.86" y1="117.07" x2="9.81" y2="117.07"/></g><g id="Layer_1" data-name="Layer 1"><path class="cls-4" d="M67.44,34.23a32.88,32.88,0,1,0,32.88,32.88A32.87,32.87,0,0,0,67.44,34.23Zm0,59.39A26.52,26.52,0,1,1,94,67.11,26.5,26.5,0,0,1,67.44,93.62Zm8.2-13.84L64.38,71.6a1.59,1.59,0,0,1-.65-1.28V48.55A1.6,1.6,0,0,1,65.32,47h4.24a1.6,1.6,0,0,1,1.6,1.6V67.33L80,73.78A1.58,1.58,0,0,1,80.36,76l-2.5,3.44a1.59,1.59,0,0,1-2.22.34Z"/></g></svg>