<svg xmlns="http://www.w3.org/2000/svg" viewBox="0 0 130 130"><defs><style>.cls-1,.cls-5{fill:#ecf2f4;}.cls-1{opacity:0.4;}.cls-2,.cls-3,.cls-6{fill:none;}.cls-2,.cls-3,.cls-4,.cls-5,.cls-6{stroke:#000;}.cls-2,.cls-4,.cls-5,.cls-6{stroke-linejoin:round;}.cls-3{stroke-miterlimit:10;stroke-width:2.3px;}.cls-4{fill:#00587c;}.cls-4,.cls-5,.cls-6{stroke-linecap:round;stroke-width:1.5px;}</style></defs><g id="Layer_2" data-name="Layer 2"><path class="cls-1" d="M108.16,52.89c5.31,4.1,10.35,9.25,11.76,15.81,1.93,9-3.75,18.27-11.43,23.37s-17,6.93-26,8.66l-23.57,4.48c-10.07,1.92-22,3.31-29.19-4-6.61-6.71-5.88-17.67-3.23-26.71C32.71,53.18,47.71,33.69,67.29,23c10.93-6,16.43-7.56,20.07,3.79,4.16,13,9.9,17.75,20.8,26.15"/><line class="cls-2" x1="17.91" y1="88.07" x2="13.08" y2="88.07"/><line class="cls-2" x1="15.5" y1="85.65" x2="15.5" y2="90.48"/><line class="cls-2" x1="112.47" y1="96.98" x2="112.47" y2="101.56"/><line class="cls-2" x1="114.75" y1="99.27" x2="110.18" y2="99.27"/><line class="cls-2" x1="67.27" y1="20.76" x2="61.7" y2="20.76"/><line class="cls-2" x1="64.48" y1="17.98" x2="64.48" y2="23.55"/><line class="cls-3" x1="14.66" y1="117.07" x2="129.14" y2="117.07"/><line class="cls-3" x1="0.86" y1="117.07" x2="9.81" y2="117.07"/></g><g id="Layer_1" data-name="Layer 1"><path class="cls-4" d="M83.5,89.87v21.74a5.31,5.31,0,0,0,5.31,5.31h0a5.31,5.31,0,0,0,5.31-5.31v-42l4.51,14.2A3.8,3.8,0,0,0,103,86.37h0a3.8,3.8,0,0,0,3-4.56l-4.28-19.37a8.53,8.53,0,0,0-8.33-6.72H77.67L70.35,41.34a3.92,3.92,0,0,0-6-1.27h0a3.93,3.93,0,0,0-1.12,4.63l9.62,21.92v45a5.31,5.31,0,0,0,5.31,5.31h0a5.31,5.31,0,0,0,5.31-5.31V89.87"/><circle class="cls-5" cx="84.02" cy="44.82" r="8.45"/><path class="cls-4" d="M46.5,89.87v21.74a5.31,5.31,0,0,1-5.31,5.31h0a5.31,5.31,0,0,1-5.31-5.31v-42l-4.51,14.2A3.8,3.8,0,0,1,27,86.37h0a3.8,3.8,0,0,1-3-4.56l4.28-19.37a8.53,8.53,0,0,1,8.33-6.72H52.33l7.32-14.38a3.92,3.92,0,0,1,6-1.27h0a3.93,3.93,0,0,1,1.12,4.63L57.12,66.62v45a5.31,5.31,0,0,1-5.31,5.31h0a5.31,5.31,0,0,1-5.31-5.31V89.87"/><circle class="cls-5" cx="45.98" cy="44.82" r="8.45"/><path class="cls-6" d="M58.07,32.07l2.26,3.09"/><path class="cls-6" d="M65,29.8v3.82"/><path class="cls-6" d="M71.93,32.07l-2.26,3.09"/></g></svg>