<svg xmlns="http://www.w3.org/2000/svg" viewBox="0 0 130 130"><defs><style>.cls-1,.cls-11{fill:#ecf2f4;}.cls-1{opacity:0.4;}.cls-2,.cls-3{fill:none;}.cls-10,.cls-11,.cls-2,.cls-3,.cls-4,.cls-7{stroke:#000;}.cls-10,.cls-11,.cls-2,.cls-7{stroke-linejoin:round;}.cls-3,.cls-4,.cls-5,.cls-6{stroke-miterlimit:10;}.cls-3{stroke-width:2.3px;}.cls-10,.cls-4,.cls-5,.cls-6,.cls-7{fill:#00587c;}.cls-4,.cls-6,.cls-7{stroke-width:1.5px;}.cls-5,.cls-6{stroke:#1e1144;}.cls-10,.cls-11,.cls-5{stroke-width:0.5px;}.cls-10,.cls-11,.cls-7{stroke-linecap:round;}.cls-8,.cls-9{font-size:6px;font-family:Bungee-Regular, Bungee;}.cls-9{letter-spacing:-0.01em;}</style></defs><g id="Layer_2" data-name="Layer 2"><path class="cls-1" d="M108.16,52.89c5.31,4.1,10.35,9.25,11.76,15.81,1.93,9-3.75,18.27-11.43,23.37s-17,6.93-26,8.66l-23.57,4.48c-10.07,1.92-22,3.31-29.19-4-6.61-6.71-5.88-17.67-3.23-26.71C32.71,53.18,47.71,33.69,67.29,23c10.93-6,16.43-7.56,20.07,3.79,4.16,13,9.9,17.75,20.8,26.15"/><line class="cls-2" x1="17.91" y1="88.07" x2="13.08" y2="88.07"/><line class="cls-2" x1="15.5" y1="85.65" x2="15.5" y2="90.48"/><line class="cls-2" x1="112.47" y1="96.98" x2="112.47" y2="101.56"/><line class="cls-2" x1="114.75" y1="99.27" x2="110.18" y2="99.27"/><line class="cls-2" x1="67.27" y1="20.76" x2="61.7" y2="20.76"/><line class="cls-2" x1="64.48" y1="17.98" x2="64.48" y2="23.55"/><line class="cls-3" x1="14.66" y1="117.07" x2="129.14" y2="117.07"/><line class="cls-3" x1="0.86" y1="117.07" x2="9.81" y2="117.07"/></g><g id="Layer_1" data-name="Layer 1"><path class="cls-4" d="M67.44,38.23a32.88,32.88,0,1,0,32.88,32.88A32.87,32.87,0,0,0,67.44,38.23Zm0,59.39A26.52,26.52,0,1,1,94,71.11,26.5,26.5,0,0,1,67.44,97.62Z"/><path class="cls-5" d="M70.28,68.68l17-6.73a.32.32,0,0,1,.27.57L71.44,71l-1.15-2.67"/><circle class="cls-6" cx="67.85" cy="71.02" r="2.8"/><rect class="cls-7" x="41.75" y="69.46" width="4.81" height="1.22"/><rect class="cls-7" x="88.23" y="69.69" width="4.81" height="1.22"/><rect class="cls-7" x="65.05" y="47.12" width="4.81" height="1.22" transform="translate(115.18 -19.73) rotate(90)"/><rect class="cls-7" x="81.14" y="53.29" width="4.81" height="1.22" transform="translate(-13.65 74.86) rotate(-45)"/><rect class="cls-7" x="48.04" y="53.98" width="4.81" height="1.22" transform="translate(53.38 -19.68) rotate(45)"/><text class="cls-8" transform="translate(45.71 77.47)">E</text><text class="cls-9" transform="translate(85.93 77.77)">F</text><path class="cls-10" d="M61,85.52h.89a1.85,1.85,0,0,1,1.85,1.85v3a0,0,0,0,1,0,0H59a0,0,0,0,1,0,0V87.52A2,2,0,0,1,61,85.52Z"/><circle class="cls-11" cx="61.41" cy="83.94" r="2.1"/><path class="cls-10" d="M66.88,85.45h.89a1.85,1.85,0,0,1,1.85,1.85v3a0,0,0,0,1,0,0H64.88a0,0,0,0,1,0,0V87.45A2,2,0,0,1,66.88,85.45Z"/><circle class="cls-11" cx="67.31" cy="83.88" r="2.1"/><path class="cls-10" d="M72.88,85.47h.89a1.85,1.85,0,0,1,1.85,1.85v3a0,0,0,0,1,0,0H70.88a0,0,0,0,1,0,0V87.47A2,2,0,0,1,72.88,85.47Z"/><circle class="cls-11" cx="73.31" cy="83.89" r="2.1"/></g></svg>